<?xml version="1.0" standalone="no"?>
<!DOCTYPE svg PUBLIC "-//W3C//DTD SVG 1.1//EN" "http://www.w3.org/Graphics/SVG/1.1/DTD/svg11.dtd">
<svg xmlns="http://www.w3.org/2000/svg">
<defs >
<font id="Allan" horiz-adv-x="681" ><font-face
    font-family="Allan"
    units-per-em="2048"
    panose-1="2 0 8 3 0 0 0 0 0 0"
    ascent="1836"
    descent="-724"
    alphabetic="0" />
<glyph unicode=" " glyph-name="space" horiz-adv-x="400" />
<glyph unicode="!" glyph-name="exclam" horiz-adv-x="528" d="M304 118Q304 75 279 38Q237 -22 156 -22H128Q87 -22 47 11Q-6 57 -6 118Q-6 162 21 198Q65 256 146 256H172Q216 256 252 225Q304 182 304 118ZM118 432Q118 432 338 1422Q348 1465 398 1466H628Q681
1465 672 1420L332 430Q318 386 272 386H162Q109 387 118 432Z" />
<glyph unicode="&quot;" glyph-name="quotedbl" horiz-adv-x="920" d="M832 1574Q832 1502 813 1427Q779 1293 670 1132Q665 1124 656 1113Q603 1046 560 1046Q512 1047 510 1088Q510 1139 534 1205Q564 1287 570 1326Q590 1466 590 1578Q592 1615 640 1618H784Q791
1619 799 1619Q832 1616 832 1574ZM532 1574Q532 1502 513 1427Q479 1293 370 1132Q365 1124 356 1113Q303 1046 260 1046Q212 1047 210 1088Q210 1139 234 1205Q264 1287 270 1326Q290 1466 290 1578Q292 1615 340 1618H484Q491 1619 499 1619Q532 1616 532 1574Z"
/>
<glyph unicode="#" glyph-name="numbersign" horiz-adv-x="1614" d="M805 1122H1074L1164 1474Q1176 1517 1224 1518H1390Q1443 1517 1434 1472L1345 1122H1532Q1591 1121 1578 1058L1552 940Q1549 928 1541 916Q1518 884 1484 884H1284L1221 638H1410Q1469 637
1456 574L1430 456Q1427 444 1419 432Q1396 400 1362 400H1161L1070 44Q1058 1 1010 0H856Q843 0 832 3Q793 16 804 64L890 400H621L530 44Q518 1 470 0H316Q303 0 292 3Q253 16 264 64L350 400H118Q110 400 103 401Q63 408 80 472L112 598Q115 613 119 623Q125
638 144 638H411L473 884H240Q232 884 225 885Q185 892 202 956L234 1082Q237 1097 241 1107Q247 1122 266 1122H534L624 1474Q636 1517 684 1518H850Q903 1517 894 1472L805 1122ZM681 638H951L1013 884H744L681 638Z" />
<glyph unicode="$" glyph-name="dollar" horiz-adv-x="946" d="M124 -80Q112 -80 102 -77Q63 -65 74 -18L101 79Q-23 146 -24 392Q-23 439 18 474L164 556Q187 568 206 563Q232 556 232 528Q224 258 264 256Q297 261 337 311Q392 384 392 458Q392 464 392 473Q393
553 388 574Q373 631 292 642Q261 647 234 657Q120 699 120 808Q120 966 208 1124Q295 1279 421 1346L458 1484Q470 1525 516 1526H660Q711 1525 702 1482L672 1367Q844 1304 806 1018Q805 1013 804 1008Q798 987 762 958L596 904Q587 903 580 903Q548 904 552
946Q552 957 554 982Q556 1014 556 1030Q559 1149 508 1156Q490 1146 464 1103Q412 1013 412 932Q413 842 506 826Q563 816 596 796Q684 744 684 576Q684 418 579 269Q481 131 346 77L316 -38Q303 -79 258 -80H124Z" />
<glyph unicode="%" glyph-name="percent" horiz-adv-x="1670" d="M336 986Q404 987 453 1097Q495 1192 502 1296Q500 1366 448 1372Q385 1367 331 1242Q292 1142 292 1064Q292 1037 295 1022Q301 986 336 986ZM90 1082Q90 1102 92 1124Q106 1273 195 1388Q305
1530 472 1530Q488 1530 505 1528Q611 1517 652 1448Q654 1445 656 1441Q690 1381 690 1278Q690 1254 686 1225Q667 1089 586 976Q480 828 332 828Q226 828 166 884Q91 955 90 1082ZM1092 140Q1160 141 1209 251Q1251 346 1258 450Q1256 520 1204 526Q1141 521
1087 396Q1048 296 1048 218Q1048 191 1051 176Q1057 140 1092 140ZM846 236Q846 256 848 278Q862 427 951 542Q1061 684 1228 684Q1244 684 1261 682Q1367 671 1408 602Q1410 599 1412 595Q1446 535 1446 432Q1446 408 1442 379Q1422 243 1342 130Q1236 -18 1088
-18Q982 -18 922 38Q847 109 846 236ZM124 -54Q124 -54 -68 -52Q-89 -51 -99 -30Q-111 -1 -90 20L1366 1482Q1411 1527 1462 1528H1656Q1677 1527 1686 1506Q1697 1477 1676 1456L208 -18Q197 -29 187 -37Q164 -54 124 -54Z" />
<glyph unicode="&amp;" glyph-name="ampersand" horiz-adv-x="1238" d="M814 864Q814 864 1182 864Q1213 861 1200 820L1172 728Q1169 718 1168 714Q1154 672 1130 672H1033Q1026 649 1018 623Q968 473 898 360Q875 322 844 278Q970 95 1070 -24Q1076 -32 1079
-43Q1086 -76 1044 -88Q1035 -91 1023 -94Q863 -134 766 -88Q707 -25 640 65Q512 -24 367 -24Q335 -24 302 -20Q192 -4 122 56Q31 135 31 265Q31 295 36 328Q47 411 88 480Q149 582 297 670Q288 694 281 714Q235 846 250 952Q255 987 267 1024Q314 1165 434 1257Q556
1350 699 1350Q730 1350 762 1346Q763 1346 764 1346Q791 1342 791 1313Q791 1307 790 1300L764 1220Q753 1189 716 1180Q666 1179 610 1133Q524 1062 524 958Q524 865 590 700Q617 632 718 470Q774 568 803 672H776Q745 672 742 687Q742 690 752 728L784 840Q785
844 787 849Q794 864 814 864ZM390 465Q307 393 306 302Q306 284 310 266Q328 190 404 190Q454 190 521 239Q460 336 390 465Z" />
<glyph unicode="&apos;" glyph-name="quotesingle" horiz-adv-x="386" d="M532 1574Q532 1502 513 1427Q479 1293 370 1132Q365 1124 356 1113Q303 1046 260 1046Q212 1047 210 1088Q210 1139 234 1205Q264 1287 270 1326Q290 1466 290 1578Q292 1615 340 1618H484Q491
1619 499 1619Q532 1616 532 1574Z" />
<glyph unicode="(" glyph-name="parenleft" horiz-adv-x="826" d="M162 360Q162 696 327 1036Q487 1365 758 1622Q800 1661 852 1658L992 1642Q1009 1639 1015 1619Q1021 1593 1004 1578Q784 1376 632 1119Q410 743 410 380Q410 276 423 174Q456 -95 550 -232Q553
-237 555 -243Q562 -270 524 -292L356 -334Q321 -353 300 -314Q277 -272 257 -226Q162 1 162 360Z" />
<glyph unicode=")" glyph-name="parenright" horiz-adv-x="898" d="M702 952Q702 615 538 275Q379 -54 110 -310Q68 -349 16 -346L-124 -332Q-141 -329 -147 -309Q-153 -283 -136 -268Q87 -65 240 199Q454 571 454 932Q454 1036 441 1138Q408 1407 314 1544Q311
1549 309 1555Q302 1582 340 1604L508 1646Q543 1665 564 1626Q587 1584 607 1538Q702 1311 702 952Z" />
<glyph unicode="*" glyph-name="asterisk" horiz-adv-x="870" d="M342 1064L128 1080Q116 1081 106 1089Q82 1110 94 1150L126 1264Q129 1275 137 1286Q159 1315 186 1302L406 1204L416 1434Q417 1439 419 1444Q434 1484 490 1484H596Q611 1484 625 1477Q664 1458
646 1418L550 1202L800 1296Q820 1304 838 1296Q868 1282 868 1240V1156Q867 1101 818 1092L552 1060L698 852Q703 845 706 835Q714 801 680 780L578 718Q573 715 566 712Q520 694 506 742L438 976L272 752Q260 736 244 728Q214 715 192 742L122 820Q86 864 128
898L342 1064Z" />
<glyph unicode="+" glyph-name="plus" horiz-adv-x="944" d="M840 524Q840 524 587 524L524 282Q512 239 464 238H314Q261 239 270 284L333 524H110Q102 524 95 525Q55 532 72 596L98 704Q101 717 106 728Q121 762 164 762H395L450 974Q462 1017 510 1018H660Q713
1017 704 972L649 762H888Q947 761 934 698L908 580Q905 568 897 556Q875 524 840 524Z" />
<glyph unicode="," glyph-name="comma" horiz-adv-x="454" d="M282 214Q282 113 235 -7Q178 -150 84 -268L66 -290Q48 -312 21 -333T-26 -354Q-66 -352 -70 -312Q-70 -260 -50 -179Q-20 -57 -16 -32T-10 27Q0 154 4 180Q5 216 54 218L234 256Q280 255 282 214Z" />
<glyph unicode="-" glyph-name="hyphen" horiz-adv-x="936" d="M172 762Q172 762 794 762Q853 761 840 698L814 580Q811 568 803 556Q780 524 746 524H146Q138 524 131 525Q91 532 108 596L140 722Q143 737 147 747Q153 762 172 762Z" />
<glyph unicode="." glyph-name="period" horiz-adv-x="466" d="M60 96Q60 136 83 170Q123 228 200 228H226Q265 228 302 198Q354 155 354 96Q354 54 329 21Q287 -36 210 -36H186Q146 -36 111 -9Q60 32 60 96Z" />
<glyph unicode="/" glyph-name="slash" horiz-adv-x="940" d="M1028 1520Q1046 1520 1060 1509Q1084 1488 1068 1458L318 44Q296 1 258 0H88Q70 0 56 11Q32 32 48 62L798 1476Q820 1519 858 1520H1028Z" />
<glyph unicode="0" glyph-name="zero" horiz-adv-x="878" d="M330 712Q282 537 282 401Q282 238 347 238Q373 238 406 265Q494 338 576 646Q602 751 619 877Q625 923 625 975Q625 1076 595 1100Q577 1115 558 1115Q440 1115 330 712ZM60 797Q140 1093 297 1254Q427
1389 576 1389Q678 1389 758 1336Q899 1240 898 988Q898 818 834 576Q773 347 678 199Q538 -17 351 -17Q309 -17 264 -6Q101 35 39 217Q7 314 7 437Q7 599 60 797Z" />
<glyph unicode="1" glyph-name="one" horiz-adv-x="628" d="M621 1355L626 1360Q639 1361 651 1352Q675 1333 666 1298L342 44Q330 1 282 0H112Q100 0 89 6Q62 23 72 62L307 970L276 934Q238 890 194 890H68Q41 890 27 916Q6 958 60 1008L382 1307Q439 1360 476
1360H624L621 1355Z" />
<glyph unicode="2" glyph-name="two" horiz-adv-x="842" d="M26 0Q-25 0 -49 47Q-86 117 -11 201L516 796Q544 828 568 875Q628 995 628 1086Q628 1179 548 1180Q507 1180 468 1132Q416 1066 414 966Q413 924 360 916L180 888Q173 887 165 887Q134 890 134 940Q134
968 138 998Q159 1155 279 1262Q408 1378 586 1378Q721 1378 805 1300Q894 1217 894 1074Q894 862 726 684L304 237L672 252Q731 254 718 188L686 56Q683 44 675 32Q652 0 618 0H26Z" />
<glyph unicode="3" glyph-name="three" horiz-adv-x="864" d="M678 706Q680 705 682 703Q762 648 762 460Q762 417 754 373Q723 212 601 98Q468 -25 296 -28Q196 -28 128 16Q4 98 4 310Q9 354 44 380L224 464Q244 473 260 470Q296 462 286 438Q285 435 282 388Q278
343 278 309Q278 168 340 168Q377 168 407 209Q431 242 452 312Q476 390 476 447Q476 568 358 568Q305 570 304 618L318 734Q324 782 378 784Q434 783 483 813Q544 849 579 942Q590 970 590 1032Q590 1070 580 1106Q558 1182 520 1182Q484 1182 460 1139Q416 1061
416 966Q416 949 403 936Q384 919 362 916L174 888Q167 887 159 887Q128 890 128 940Q128 957 129 976Q142 1142 255 1255Q378 1378 560 1378Q668 1378 740 1333Q866 1253 866 1056Q866 991 843 925Q795 791 678 706Z" />
<glyph unicode="4" glyph-name="four" horiz-adv-x="942" d="M828 294Q828 294 737 294L674 44Q663 2 614 0H444Q432 0 421 6Q395 23 404 62L462 294H74Q-12 294 -31 357Q-48 419 6 498L570 1334Q579 1348 591 1353Q606 1360 630 1360H826Q850 1360 862 1346Q880
1322 850 1286L305 512L517 513L574 738Q585 780 634 782H804Q816 782 827 776Q853 759 844 720L792 514H890Q949 516 936 454L896 352Q895 347 893 342Q874 294 828 294Z" />
<glyph unicode="5" glyph-name="five" horiz-adv-x="858" d="M420 899Q478 916 538 916Q630 916 688 875Q779 809 779 649Q779 583 764 502Q709 233 569 99Q441 -22 268 -23Q160 -23 92 17Q0 72 0 196Q0 302 80 394Q81 395 83 397Q100 416 134 412L254 388Q261
387 267 386Q304 377 288 338Q267 278 266 229Q266 163 299 163Q334 163 391 240Q468 344 498 448Q532 562 532 643Q531 722 494 722Q462 722 416 685Q351 634 308 560Q294 538 266 544L124 600Q107 607 99 621Q94 632 102 665L266 1318Q276 1358 326 1360H924Q931
1360 939 1359Q979 1352 962 1288L930 1160Q925 1140 921 1133Q914 1120 890 1120L477 1129L420 899Z" />
<glyph unicode="6" glyph-name="six" horiz-adv-x="924" d="M499 934Q576 934 630 930Q662 927 691 919Q878 868 878 640Q878 578 863 505Q822 304 706 157Q557 -32 352 -32Q293 -32 242 -13Q110 36 62 190Q38 267 38 360Q38 539 128 774Q165 870 219 958Q347
1166 540 1287Q676 1372 770 1374L976 1352Q982 1350 988 1346Q1010 1328 1009 1290Q1007 1244 966 1238Q941 1234 915 1228Q657 1168 499 934ZM397 737Q388 716 365 643Q300 438 299 309Q299 261 308 224Q324 156 364 156Q450 164 518 342Q549 424 566 508Q577
560 577 628Q577 695 568 718Q552 760 494 760Q445 760 397 737Z" />
<glyph unicode="7" glyph-name="seven" horiz-adv-x="906" d="M963 1251L964 1250L362 42Q339 -2 286 2L124 8Q100 9 86 20Q59 42 80 82L660 1119L160 1114Q152 1114 145 1115Q105 1122 122 1186L158 1320Q162 1338 167 1347Q174 1360 198 1360H830H912Q938 1359
958 1339Q992 1303 964 1252L963 1251Z" />
<glyph unicode="8" glyph-name="eight" horiz-adv-x="908" d="M516 836Q555 848 594 881Q657 936 664 998Q668 1034 667 1047Q658 1152 566 1153Q530 1153 500 1127Q442 1078 442 980Q446 893 516 836ZM476 569Q431 539 391 496Q306 404 306 328Q306 192 390 192Q444
192 489 258Q538 335 538 440Q538 528 476 569ZM265 669Q243 690 224 718Q160 813 160 928Q160 963 167 1001Q194 1150 304 1260Q435 1390 612 1390Q734 1390 819 1325Q934 1238 934 1078Q934 943 837 825Q805 787 727 716Q730 714 734 711Q834 629 834 446Q834
404 823 358Q789 214 673 106Q532 -26 348 -26Q235 -26 157 25Q36 105 36 280Q36 380 80 466Q131 566 265 669Z" />
<glyph unicode="9" glyph-name="nine" horiz-adv-x="938" d="M529 475Q465 460 388 460Q268 461 196 564Q132 657 132 782Q132 837 143 896Q177 1085 293 1220Q432 1382 624 1382Q657 1382 689 1375Q828 1345 885 1199Q919 1112 919 996Q919 801 822 526Q742 297
624 156Q467 -31 267 -32Q221 -31 192 -26Q12 7 12 258Q12 309 52 328L232 412Q252 421 268 418Q295 413 294 386Q291 309 288 270Q281 176 317 176Q346 176 407 245Q482 331 529 475ZM584 660Q639 874 652 1006Q656 1047 656 1078Q656 1188 608 1188Q542 1187
473 1056Q408 929 408 796Q408 711 438 672Q466 638 512 638Q550 638 584 660Z" />
<glyph unicode=":" glyph-name="colon" horiz-adv-x="732" d="M260 956Q260 996 283 1030Q323 1088 400 1088H426Q465 1088 502 1058Q554 1015 554 956Q554 915 529 881Q487 824 410 824H386Q346 824 311 851Q260 892 260 956ZM60 96Q60 136 83 170Q123 228 200
228H226Q265 228 302 198Q354 155 354 96Q354 54 329 21Q287 -36 210 -36H186Q146 -36 111 -9Q60 32 60 96Z" />
<glyph unicode=";" glyph-name="semicolon" horiz-adv-x="540" d="M260 956Q260 996 283 1030Q323 1088 400 1088H426Q465 1088 502 1058Q554 1015 554 956Q554 915 529 881Q487 824 410 824H386Q346 824 311 851Q260 892 260 956ZM282 214Q282 113 235 -7Q178
-150 84 -268L66 -290Q48 -312 21 -333T-26 -354Q-66 -352 -70 -312Q-70 -260 -50 -179Q-20 -57 -16 -32T-10 27Q0 154 4 180Q5 216 54 218L234 256Q280 255 282 214Z" />
<glyph unicode="&lt;" glyph-name="less" horiz-adv-x="1004" d="M321 608L792 434Q799 432 806 427Q839 406 830 360L804 244Q801 229 796 218Q783 194 742 212L66 496Q58 500 50 505Q15 532 26 574L46 668Q48 677 52 686Q71 727 114 740L914 1014Q935 1021 949
1018Q981 1011 968 960L944 848Q942 840 938 831Q918 789 876 776L321 608Z" />
<glyph unicode="=" glyph-name="equal" horiz-adv-x="996" d="M804 336Q804 336 74 336Q66 336 59 337Q19 344 36 408L62 516Q65 529 70 540Q85 574 128 574H852Q911 573 898 510L872 392Q869 380 861 368Q839 336 804 336ZM904 738H174Q166 738 159 739Q119 746
136 810L162 918Q165 931 170 942Q185 976 228 976H952Q1011 975 998 912L972 794Q969 782 961 770Q939 738 904 738Z" />
<glyph unicode="&gt;" glyph-name="greater" horiz-adv-x="1004" d="M675 622L204 796Q197 798 190 803Q157 824 166 870L192 984Q195 999 200 1010Q213 1034 254 1016L930 732Q938 728 946 723Q981 696 970 654L950 560Q948 551 944 542Q925 501 882 488L82 214Q61
207 47 210Q15 217 28 268L52 382Q54 390 58 399Q78 441 120 454L675 622Z" />
<glyph unicode="?" glyph-name="question" horiz-adv-x="732" d="M314 360Q314 349 311 340Q302 315 254 320L162 330Q68 340 152 572Q167 614 182 639Q246 747 344 774Q344 774 397 789Q477 811 512 916Q520 938 528 983Q557 1145 556 1216Q555 1238 538 1244Q523
1240 500 1222Q453 1183 402 1132Q368 1099 332 1122L232 1178Q224 1184 219 1192Q205 1217 220 1242Q261 1307 354 1385Q443 1459 492 1470Q500 1472 507 1472Q557 1473 657 1418Q744 1370 762 1322Q786 1257 786 1168Q786 1109 775 1039Q750 881 694 756Q675
714 653 687Q584 605 488 572Q488 572 407 544Q388 538 354 522Q350 512 346 500Q314 404 314 360ZM8 96Q8 136 31 170Q71 228 148 228H174Q213 228 250 198Q302 155 302 96Q302 54 277 21Q235 -36 158 -36H134Q94 -36 59 -9Q8 32 8 96Z" />
<glyph unicode="@" glyph-name="at" horiz-adv-x="1888" d="M1117 941Q1117 941 1120 956Q1121 960 1123 968Q1134 1008 1170 1008H1284Q1355 1008 1338 946L1174 338Q1166 308 1168 284Q1173 240 1214 240Q1250 240 1288 258Q1432 330 1492 615Q1510 703 1511
780Q1511 934 1436 1043Q1314 1220 1028 1220Q816 1220 649 1077Q467 921 398 656Q367 535 366 409Q366 242 430 110Q558 -157 904 -168Q931 -169 952 -175Q1028 -196 964 -268L918 -318Q907 -330 893 -339Q868 -354 804 -354Q558 -354 383 -216Q202 -72 138 185Q109
302 109 420Q109 578 160 733Q267 1058 518 1238Q746 1400 1026 1400Q1153 1400 1262 1375Q1542 1311 1665 1099Q1745 961 1744 783Q1744 670 1712 542Q1644 271 1466 122Q1337 14 1206 14Q1160 14 1125 22Q1031 42 981 132Q970 117 957 102Q880 20 782 20Q754
20 723 30Q637 59 600 140Q559 237 559 342Q559 531 667 742Q743 890 822 950Q894 1000 960 1000Q1032 1000 1117 941ZM1067 713Q1057 720 1046 727Q1011 747 984 747Q964 747 948 736Q910 707 860 607Q784 454 784 342Q786 259 830 254Q884 255 944 352Q1014 465
1067 713Z" />
<glyph unicode="A" glyph-name="A" horiz-adv-x="1023" d="M427 628H644L679 1142L427 628ZM310 390L138 38Q115 -6 62 -2L-94 4Q-95 4 -98 4Q-162 9 -138 78L530 1364Q537 1378 547 1392Q586 1444 640 1444L870 1446Q889 1447 905 1440Q951 1419 948 1350L874
44Q868 2 814 0H652Q645 0 638 1Q600 9 606 54L628 390H310Z" />
<glyph unicode="B" glyph-name="B" horiz-adv-x="1012" d="M451 849L488 846Q502 846 514 847Q666 860 706 1072Q712 1106 711 1131Q707 1214 614 1214H544L451 849ZM270 1214H218Q200 1214 184 1222Q150 1239 158 1266L196 1408Q198 1416 203 1424Q219 1448 242
1448H378H548H636Q768 1448 859 1408Q1020 1336 1020 1158Q1020 1131 1017 1102Q1002 964 940 864Q881 769 783 731Q801 718 816 701Q870 635 852 470Q845 411 821 344Q765 192 668 108Q573 23 440 6Q391 0 226 0H186H134H16Q3 0 -7 6Q-33 23 -24 62L270 1214ZM298
248L344 250Q398 253 437 267Q538 303 582 438Q623 570 566 618Q535 644 399 644L298 248Z" />
<glyph unicode="C" glyph-name="C" horiz-adv-x="870" d="M929 1068Q932 1032 888 1014L712 962Q698 958 680 964Q650 976 648 1008Q646 1031 644 1050Q636 1121 606 1196Q594 1200 582 1200Q459 1199 342 752Q289 549 289 404Q289 243 340 228H358Q376 241 393
258Q434 301 504 436Q518 463 529 475Q548 495 586 478L750 406Q759 402 765 393Q781 366 756 326Q650 156 564 82Q450 -16 288 -16Q228 -16 160 26Q89 71 48 158Q1 262 1 417Q1 587 58 816Q128 1095 253 1257Q413 1464 598 1464Q775 1464 855 1334Q915 1237 929
1068Z" />
<glyph unicode="D" glyph-name="D" horiz-adv-x="924" d="M540 1201Q540 1201 298 252Q316 250 368 250Q506 251 616 682Q663 873 660 1023Q656 1176 600 1192Q579 1198 540 1201ZM262 1191Q239 1188 218 1184Q167 1174 162 1174Q152 1174 143 1178Q114 1190 120
1230L140 1388Q146 1417 186 1428Q188 1428 192 1429Q348 1462 526 1462Q659 1462 752 1416Q948 1319 948 1034Q948 855 884 610Q843 455 783 334Q612 -8 320 -8Q314 -8 306 -8Q111 -8 36 6Q23 9 13 13Q-34 33 -16 104L262 1191Z" />
<glyph unicode="E" glyph-name="E" horiz-adv-x="912" d="M465 904H806Q861 903 848 840L824 722Q821 710 814 698Q792 666 760 666H405L295 238H678Q737 237 724 174L698 56Q695 44 687 32Q664 0 630 0H16Q3 0 -8 6Q-34 23 -24 62L269 1210H198Q190 1210 183
1211Q143 1218 160 1282L192 1408Q196 1426 201 1437T232 1448H974Q1033 1447 1020 1384L994 1266Q991 1254 983 1242Q960 1210 926 1210H543L465 904Z" />
<glyph unicode="F" glyph-name="F" horiz-adv-x="864" d="M440 804H780Q835 803 822 740L798 622Q795 610 788 598Q766 566 734 566H379L246 44Q234 1 186 0H16Q3 0 -7 6Q-33 23 -24 62L269 1210H198Q190 1210 183 1211Q143 1218 160 1282L192 1408Q196 1426 201
1435Q208 1448 232 1448H378H548H974Q1033 1447 1020 1384L994 1266Q991 1254 983 1242Q960 1210 926 1210H543L440 804Z" />
<glyph unicode="G" glyph-name="G" horiz-adv-x="900" d="M438 698Q438 698 868 698Q899 697 886 654L854 542Q842 502 828 491Q825 480 820 466Q775 325 709 221Q562 -12 350 -12Q204 -11 120 63Q2 169 2 442Q2 595 58 816Q125 1084 253 1257Q407 1464 598 1464Q709
1461 796 1412Q822 1396 844 1373Q932 1281 932 1056Q932 1008 892 992L666 924Q660 922 654 922Q630 921 632 956Q636 1051 636 1066Q635 1161 596 1172Q587 1175 578 1175Q455 1179 342 752Q293 564 292 421Q292 270 348 256Q380 249 417 273Q496 327 544 486H396Q361
488 372 542L408 674Q409 678 411 683Q418 698 438 698Z" />
<glyph unicode="H" glyph-name="H" horiz-adv-x="1198" d="M326 1404Q338 1447 386 1448H556Q569 1448 579 1442Q605 1425 596 1386L473 904H857L984 1404Q996 1447 1044 1448H1214Q1227 1448 1237 1442Q1263 1425 1254 1386L912 44Q900 1 852 0H682Q669 0 659
6Q633 23 642 62L796 666H413L254 44Q242 1 194 0H24Q11 0 1 6Q-25 23 -16 62L326 1404Z" />
<glyph unicode="I" glyph-name="I" horiz-adv-x="552" d="M318 1404Q330 1447 378 1448H548Q561 1448 571 1442Q597 1425 588 1386L246 44Q234 1 186 0H16Q3 0 -7 6Q-33 23 -24 62L318 1404Z" />
<glyph unicode="J" glyph-name="J" horiz-adv-x="612" d="M436 1448Q436 1448 608 1448Q621 1448 632 1441Q658 1424 648 1388L306 44Q262 -120 134 -236Q29 -330 -94 -366Q-139 -378 -156 -350L-210 -238Q-211 -236 -213 -232Q-232 -187 -194 -172Q-153 -156
-114 -130Q6 -48 40 82L378 1404Q390 1446 436 1448Z" />
<glyph unicode="K" glyph-name="K" horiz-adv-x="996" d="M318 1404Q330 1447 378 1448H548Q560 1448 571 1442Q598 1425 588 1386L455 865L858 1422Q866 1433 876 1440Q888 1448 918 1448H1114Q1138 1448 1150 1434Q1168 1410 1138 1374L654 736L820 60Q837 2
774 0H616Q558 0 542 50L401 651L246 44Q234 1 186 0H16Q4 0 -7 6Q-34 23 -24 62L318 1404Z" />
<glyph unicode="L" glyph-name="L" horiz-adv-x="812" d="M318 1404Q330 1447 378 1448H548Q561 1448 571 1442Q597 1425 588 1386L295 238H678Q737 237 724 174L698 56Q695 44 687 32Q664 0 630 0H16Q3 0 -7 6Q-33 23 -24 62L318 1404Z" />
<glyph unicode="M" glyph-name="M" horiz-adv-x="1284" d="M318 1404Q330 1447 378 1448H570Q576 1448 583 1447Q613 1442 618 1402Q654 1012 641 709L1048 1410Q1050 1413 1052 1417Q1073 1448 1108 1448H1300Q1313 1448 1323 1442Q1349 1425 1340 1386L998 44Q986
1 938 0H768Q755 0 745 6Q719 23 728 62L883 671L752 454Q751 452 749 449Q696 362 624 362L492 376Q424 385 428 456Q437 594 431 771L246 44Q234 1 186 0H16Q3 0 -7 6Q-33 23 -24 62L318 1404Z" />
<glyph unicode="N" glyph-name="N" horiz-adv-x="1190" d="M318 1404Q330 1447 378 1448H543Q563 1448 580 1434Q584 1431 588 1426Q593 1419 602 1386L776 620L976 1404Q988 1447 1036 1448H1206Q1218 1448 1229 1442Q1256 1425 1246 1386L904 44Q892 1 844 0H674Q653
0 644 12Q636 24 632 40L450 845L246 44Q234 1 186 0H16Q4 0 -7 6Q-34 23 -24 62L318 1404Z" />
<glyph unicode="O" glyph-name="O" horiz-adv-x="900" d="M342 752Q282 524 282 381Q282 228 350 228Q365 228 380 232Q423 246 472 328Q534 436 596 682Q659 939 659 1068T596 1198Q524 1198 472 1112Q409 1008 342 752ZM58 816Q126 1079 251 1251Q407 1464 600
1464Q609 1464 618 1464Q779 1455 856 1364Q932 1274 932 1058Q932 879 864 610Q815 416 739 275Q584 -10 352 -10Q193 -10 109 71Q4 175 4 440Q4 606 58 816Z" />
<glyph unicode="P" glyph-name="P" horiz-adv-x="940" d="M436 791L510 796Q519 797 529 798Q622 812 672 904Q677 920 684 943Q720 1079 720 1164Q720 1175 711 1186Q691 1210 660 1210Q649 1211 603 1211Q565 1211 544 1212L436 791ZM270 1214H202Q188 1214
176 1221Q150 1237 160 1270L196 1408Q198 1416 203 1424Q219 1448 242 1448H668Q754 1448 821 1422Q972 1362 972 1188Q972 1077 925 930Q872 765 765 680Q652 586 383 583L246 44Q234 1 186 0H16Q3 0 -7 6Q-33 23 -24 62L270 1214Z" />
<glyph unicode="Q" glyph-name="Q" horiz-adv-x="900" d="M150 -136Q150 -136 174 -30Q179 -6 198 8Q199 8 202 10Q204 12 206 12Q184 20 164 30Q134 47 109 71Q4 175 4 440Q4 606 58 816Q125 1075 251 1251Q403 1463 618 1464Q713 1463 798 1414Q831 1394 856
1364Q932 1274 932 1058Q932 879 864 610Q833 488 791 386Q662 73 458 7Q560 -23 676 14Q687 18 697 13Q719 0 710 -44L688 -156Q687 -159 686 -163Q679 -188 650 -198Q512 -244 422 -202Q317 -153 180 -202Q171 -205 164 -204Q137 -198 150 -136ZM342 752Q282
524 282 381Q282 228 350 228Q365 228 380 232Q423 246 472 328Q534 436 596 682Q660 943 660 1072Q660 1197 600 1198Q524 1198 472 1112Q409 1009 342 752Z" />
<glyph unicode="R" glyph-name="R" horiz-adv-x="958" d="M435 785L510 796Q539 800 543 802Q625 830 651 871Q676 913 684 943Q720 1077 720 1164Q720 1180 704 1193Q690 1205 670 1209Q658 1211 603 1212Q576 1212 544 1212L435 785ZM270 1214H202Q188 1214
176 1221Q150 1237 160 1270L196 1408Q198 1416 203 1424Q219 1448 242 1448H668Q754 1448 821 1422Q972 1362 972 1188Q972 1069 925 930Q874 779 812 724Q745 658 683 626L764 84Q766 68 766 54Q763 0 710 0H552Q542 0 532 4Q490 23 480 100L420 583H383L246
44Q234 1 186 0H16Q3 0 -7 6Q-33 23 -24 62L270 1214Z" />
<glyph unicode="S" glyph-name="S" horiz-adv-x="928" d="M700 1470Q742 1470 779 1460Q982 1402 976 1056Q975 1004 928 992L782 954Q771 951 757 952Q714 957 712 996Q705 1162 649 1235Q642 1235 636 1232Q612 1218 580 1164Q514 1055 514 960Q514 913 532
888Q552 862 624 842L660 832Q715 817 748 794Q834 733 834 560Q834 473 803 382Q746 213 615 93Q478 -32 336 -32Q262 -32 204 -7Q36 66 38 334Q38 345 40 357Q49 416 86 428L240 482Q261 489 282 488Q318 485 318 452Q312 215 348 172Q367 172 382 178Q416 195
449 237Q526 335 526 470Q526 526 518 552Q500 605 416 626L384 634Q358 641 330 653Q200 714 200 854Q200 931 226 1017Q279 1192 402 1321Q543 1470 700 1470Z" />
<glyph unicode="T" glyph-name="T" horiz-adv-x="884" d="M1044 1448Q1103 1448 1090 1384L1064 1266Q1061 1254 1053 1242Q1030 1210 996 1210H709L412 44Q400 1 352 0H180Q162 0 148 14T140 52L435 1210H130Q123 1210 115 1211Q76 1218 92 1282L124 1408Q128
1423 133 1432Q144 1448 184 1448H1044Z" />
<glyph unicode="U" glyph-name="U" horiz-adv-x="1096" d="M432 -14Q242 -14 160 70Q141 89 126 113Q25 267 112 604L318 1404Q330 1447 378 1448H556Q569 1448 579 1442Q605 1425 596 1386L394 582Q346 391 354 304Q363 204 450 204Q498 204 535 237Q611 307
682 588L890 1404Q902 1447 950 1448H1112Q1125 1448 1135 1442Q1161 1425 1152 1386L956 610Q891 353 812 218Q675 -14 432 -14Z" />
<glyph unicode="V" glyph-name="V" horiz-adv-x="1008" d="M369 302L910 1406Q932 1450 986 1446L1142 1440Q1172 1440 1186 1422Q1206 1404 1186 1366L518 80Q509 64 501 52Q462 0 408 0L178 -2Q145 0 126 17Q97 42 100 94L174 1400Q176 1443 234 1444H396Q416
1444 429 1433Q444 1421 442 1390L369 302Z" />
<glyph unicode="W" glyph-name="W" horiz-adv-x="1442" d="M526 1448Q533 1448 540 1446Q576 1433 542 1370Q538 1363 534 1354Q469 1223 402 964Q297 557 327 327Q430 468 529 669Q681 980 732 1232L736 1234Q757 1338 774 1396Q778 1407 783 1417Q800 1448 844
1448H1024Q1063 1443 1050 1388Q953 1102 932 830Q902 443 935 295Q937 297 939 300Q1094 497 1207 885Q1294 1184 1304 1400Q1305 1418 1307 1426Q1312 1448 1344 1448H1524Q1547 1448 1560 1443Q1578 1435 1578 1398Q1578 1278 1534 1084Q1455 736 1307 443Q1127
84 930 0H792Q786 0 780 1Q755 5 742 40Q688 194 676 450Q661 423 644 395Q495 145 346 0H196Q153 1 138 40Q125 80 114 126Q52 400 102 783Q150 1157 276 1420Q290 1447 330 1448H526ZM979 214Q986 210 992 210L979 214Z" />
<glyph unicode="X" glyph-name="X" horiz-adv-x="850" d="M526 0Q452 0 444 68L403 411L232 34Q226 21 212 11Q197 0 166 0H-26Q-56 0 -67 18Q-81 41 -58 84L300 751L166 1370Q158 1406 169 1428Q179 1450 218 1450H366Q433 1450 448 1382L514 1003L712 1416Q718
1428 733 1440Q746 1450 779 1450H968Q1000 1450 1012 1436Q1033 1410 1006 1366L598 671L726 80Q735 40 721 18Q710 0 676 0H526Z" />
<glyph unicode="Y" glyph-name="Y" horiz-adv-x="872" d="M523 895Q720 1194 824 1422Q838 1450 884 1448L1054 1440Q1066 1439 1076 1432Q1103 1411 1078 1368Q1064 1344 1049 1319Q827 939 567 590L428 44Q416 1 368 0H198Q185 0 175 6Q149 23 158 62L298 614Q298
704 282 862Q249 1183 204 1358Q194 1385 201 1409Q212 1444 248 1446L408 1454Q425 1455 435 1453Q459 1448 466 1406Q511 1141 523 895Z" />
<glyph unicode="Z" glyph-name="Z" horiz-adv-x="946" d="M312 1448Q312 1448 994 1448Q1033 1448 1042 1416Q1046 1401 1042 1382L1038 1376L1014 1266Q1011 1254 1003 1242Q980 1210 946 1210H937L341 238H698Q757 238 744 174L718 56Q715 44 707 32Q684 0 650
0H22Q-30 0 -44 34Q-57 65 -38 95L654 1210H286Q279 1210 271 1211Q232 1218 248 1282L280 1408Q285 1427 287 1433Q293 1448 312 1448Z" />
<glyph unicode="[" glyph-name="bracketleft" horiz-adv-x="580" d="M152 -90H328Q387 -91 374 -154L348 -272Q345 -284 337 -296Q314 -328 280 -328H-82Q-95 -328 -107 -326Q-161 -315 -140 -238Q-140 -238 352 1662Q370 1723 434 1724H830Q889 1723 876 1660L850
1542Q847 1530 839 1518Q816 1486 782 1486H560L152 -90Z" />
<glyph unicode="\" glyph-name="backslash" horiz-adv-x="690" d="M152 1442Q152 1443 152 1444Q146 1520 208 1520H360Q414 1519 420 1458Q420 1458 538 60Q543 2 484 0H326Q280 1 272 62L152 1442Z" />
<glyph unicode="]" glyph-name="bracketright" horiz-adv-x="580" d="M464 1486H288Q229 1487 242 1550L268 1668Q271 1680 279 1692Q302 1724 336 1724H698Q711 1724 723 1722Q777 1711 756 1634Q756 1634 270 -266Q254 -327 188 -328H-208Q-267 -327 -254 -264L-228
-146Q-225 -134 -217 -122Q-194 -90 -160 -90H61L464 1486Z" />
<glyph unicode="^" glyph-name="asciicircum" horiz-adv-x="924" d="M672 1272H690H786Q800 1272 815 1266Q860 1247 858 1194L840 460Q835 431 782 426H630Q580 427 578 462L612 1118L254 460Q249 431 196 426H36Q-14 427 -16 462L418 1184Q429 1203 445 1220Q494
1272 554 1272H672Z" />
<glyph unicode="_" glyph-name="underscore" horiz-adv-x="1204" d="M-38 -42Q-38 -42 944 -42Q1003 -43 990 -106L964 -224Q961 -236 953 -248Q930 -280 896 -280H-64Q-72 -280 -79 -279Q-119 -272 -102 -208L-70 -82Q-67 -67 -63 -57Q-57 -42 -38 -42Z" />
<glyph unicode="`" glyph-name="grave" horiz-adv-x="606" d="M346 1448Q386 1447 408 1414L544 1194Q563 1165 536 1153Q527 1150 518 1150H432Q392 1151 364 1178L128 1412Q108 1430 123 1443Q128 1447 134 1448H346Z" />
<glyph unicode="a" glyph-name="a" horiz-adv-x="846" d="M388 138H389L385 147L366 124Q330 81 304 53Q246 -6 200 -6H186Q152 -4 86 60Q9 136 9 228Q9 406 133 739Q214 959 300 1024Q368 1075 460 1076Q546 1076 624 1021L628 1038Q634 1062 641 1070Q656 1086
676 1086H804Q875 1086 860 1020L640 285Q668 313 684 340Q704 372 734 354L822 296Q851 274 836 250Q809 211 779 176Q629 3 476 -10Q453 -12 440 12L388 138ZM582 854Q578 855 574 857Q537 868 512 867Q489 867 476 858Q441 831 385 690Q313 509 284 358Q278
324 277 313Q277 298 289 298Q296 298 302 300Q339 317 400 418Q506 601 572 824L582 854Z" />
<glyph unicode="b" glyph-name="b" horiz-adv-x="862" d="M604 1472Q604 1472 456 891L500 944Q537 989 562 1015Q620 1074 666 1074H680Q714 1072 780 1008Q856 929 856 833Q856 657 733 329Q651 109 566 44Q498 -7 406 -8Q320 -8 241 48L240 44Q228 1 180 0H26Q4
0 -10 10Q-35 26 -26 64L334 1474Q346 1517 394 1518H560Q613 1518 604 1472ZM284 214Q326 200 354 200Q377 200 390 210Q425 237 481 378Q543 535 582 710Q587 734 588 755Q588 769 575 770Q567 770 564 768Q527 751 466 650Q360 467 294 244L284 214Z" />
<glyph unicode="c" glyph-name="c" horiz-adv-x="602" d="M604 1058Q681 1026 714 990Q720 983 725 975Q742 943 722 920L630 822Q628 820 622 814Q598 793 572 808Q492 855 462 855Q462 855 456 854Q422 844 364 728Q286 574 260 454Q230 321 230 262Q230 207
246 202L362 302Q392 328 432 302L516 246Q526 239 532 227Q542 202 528 182Q492 127 414 65Q373 32 318 -3Q291 -21 258 -22Q208 -22 121 22Q32 68 9 126Q-17 193 -17 281Q-17 412 42 587Q97 754 164 854Q322 1089 470 1089Q528 1089 604 1058Z" />
<glyph unicode="d" glyph-name="d" horiz-adv-x="924" d="M1006 1472Q1006 1472 673 298Q694 319 710 342Q732 373 760 352L844 290Q872 267 856 242Q835 216 812 190Q642 3 482 -10Q459 -12 446 12L440 26L429 54L394 138H395L391 147L372 124Q336 81 310 53Q252
-6 206 -6H195Q155 -6 92 60Q14 141 14 225Q14 388 139 739Q216 955 306 1024Q374 1076 466 1076Q554 1076 633 1018L756 1474Q767 1516 816 1518H962Q1015 1518 1006 1472ZM588 854Q549 867 520 867Q497 867 482 858Q448 833 391 690Q316 501 290 358Q284 325
284 315Q284 298 298 298Q304 298 308 300Q345 317 406 418Q512 601 578 824L588 854Z" />
<glyph unicode="e" glyph-name="e" horiz-adv-x="668" d="M296 522Q354 559 401 635Q466 740 466 834Q466 852 464 864Q460 888 440 888Q435 888 429 884Q402 864 376 794Q337 694 296 522ZM249 304Q243 273 243 257Q243 236 270 224Q270 224 288 230Q321 244
391 324Q400 333 409 341Q424 356 446 342L544 282Q558 274 562 261Q567 246 562 238Q555 226 545 212Q494 142 394 62Q280 -28 235 -28H224Q30 22 6 136Q0 164 0 229Q0 400 79 643Q161 901 244 978Q272 1005 303 1026Q387 1084 464 1084Q505 1084 548 1066Q682
1005 682 862Q682 832 675 798Q647 651 520 504Q394 359 249 304Z" />
<glyph unicode="f" glyph-name="f" horiz-adv-x="622" d="M220 0Q220 0 68 0Q58 0 48 3Q16 13 24 46L246 880H150Q116 882 124 928L156 1042Q158 1049 162 1058Q173 1080 200 1080H299L312 1130Q320 1162 333 1201Q424 1473 618 1529Q671 1546 708 1534L892 1486Q908
1482 918 1467Q936 1435 912 1390L860 1292Q845 1264 790 1282L666 1322Q665 1321 663 1319Q601 1247 580 1170L555 1080H664Q699 1077 694 1036L660 924Q647 882 608 880H501L278 44Q267 2 220 0Z" />
<glyph unicode="g" glyph-name="g" horiz-adv-x="832" d="M802 1080Q852 1078 844 1026Q777 756 571 48Q526 -106 520 -130Q478 -283 382 -336Q319 -370 286 -378Q274 -380 262 -380Q216 -380 158 -346L-46 -230Q-61 -222 -68 -213Q-86 -187 -62 -158L2 -72Q2
-72 6 -68Q35 -38 68 -56L242 -150Q249 -154 256 -154Q280 -154 296 -104L366 141L352 124Q317 81 290 53Q232 -6 186 -6H172Q138 -4 72 60Q-5 142 -5 232Q-5 259 12 372Q29 479 119 739Q195 954 286 1024Q356 1076 446 1076T617 1016Q617 1017 618 1018Q636 1077
680 1078L802 1080ZM568 854Q564 855 560 857Q523 868 498 867Q475 867 462 858Q427 831 371 690Q292 492 270 358Q264 321 264 313Q265 298 280 298Q284 298 288 300Q325 317 386 418Q492 601 558 824L568 854Z" />
<glyph unicode="h" glyph-name="h" horiz-adv-x="870" d="M604 1472Q604 1472 437 819L560 990Q567 1000 578 1014Q636 1082 710 1082H804Q821 1082 837 1078Q915 1057 888 954L644 28Q635 0 594 0H432Q424 0 412 10Q402 18 408 40Q514 406 562 600Q577 660 571
634Q578 660 564 660Q553 660 532 626Q448 487 332 264Q283 169 262 130L240 44Q228 1 180 0H148H26Q14 0 2 3Q-38 16 -26 64L334 1474Q346 1517 394 1518H560Q613 1518 604 1472Z" />
<glyph unicode="i" glyph-name="i" horiz-adv-x="494" d="M290 1080H452Q505 1079 496 1034L236 44Q224 1 176 0H14Q-39 1 -30 46L230 1036Q242 1079 290 1080ZM280 1348Q280 1392 305 1428Q348 1488 428 1488H456Q498 1488 537 1455Q590 1409 590 1348Q590 1304
563 1268Q519 1210 438 1210H412Q369 1210 332 1241Q280 1284 280 1348Z" />
<glyph unicode="j" glyph-name="j" horiz-adv-x="504" d="M310 1348Q310 1392 335 1428Q378 1488 458 1488H486Q528 1488 567 1455Q620 1409 620 1348Q620 1304 593 1268Q549 1210 468 1210H442Q399 1210 362 1241Q310 1284 310 1348ZM-188 -350L-252 -252Q-261
-238 -261 -222Q-261 -196 -236 -186Q-187 -166 -142 -130Q-37 -44 -4 82L248 1036Q260 1080 300 1080H470Q492 1080 502 1072Q521 1059 514 1034L254 44Q211 -122 88 -238Q-12 -332 -126 -366Q-172 -375 -188 -350Z" />
<glyph unicode="k" glyph-name="k" horiz-adv-x="878" d="M419 746L664 1054Q685 1080 724 1080H934Q956 1080 965 1065Q976 1042 944 1006L559 568L724 60Q743 0 678 0H520Q491 0 474 11Q454 24 446 50L337 424L240 44Q229 0 180 0H26Q0 0 -14 12Q-35 30 -26
64L334 1474Q345 1518 394 1518H560Q616 1518 604 1472L419 746Z" />
<glyph unicode="l" glyph-name="l" horiz-adv-x="486" d="M394 1518H560Q616 1517 604 1472L240 44Q227 0 180 0H26Q4 0 -10 10Q-35 29 -26 64L334 1474Q346 1517 394 1518Z" />
<glyph unicode="m" glyph-name="m" horiz-adv-x="1264" d="M392 785L538 988Q545 998 556 1012Q614 1080 688 1080H786Q803 1080 819 1076Q897 1055 870 952L831 804L970 982Q989 1008 1007 1027Q1061 1082 1132 1082H1206Q1216 1082 1227 1080Q1317 1065 1284
940L1044 28Q1037 0 994 0H846Q822 0 812 11Q806 16 806 32Q806 53 824 114Q824 114 940 504Q947 528 952 548Q984 656 970 656Q961 656 949 643Q941 634 900 562Q854 480 772 314Q649 63 626 28Q612 0 576 0H414Q405 0 394 10Q386 18 394 48L518 504Q518 504 528
537Q562 656 540 656Q530 656 516 638Q515 637 474 570Q422 484 328 300Q212 72 188 38Q158 0 126 0H4Q-13 0 -23 15Q-33 32 -28 52L232 1024Q245 1078 292 1080H420Q440 1080 453 1076Q483 1066 470 1018L392 785Z" />
<glyph unicode="n" glyph-name="n" horiz-adv-x="852" d="M392 785L538 988Q545 998 556 1012Q614 1080 688 1080H786Q803 1080 819 1076Q897 1055 870 952L630 42Q619 1 576 0H421Q404 0 396 9Q386 20 394 48L518 504Q518 505 528 537Q563 656 540 656Q530 656
516 638Q515 637 474 570Q422 484 328 300Q212 72 188 38Q159 1 126 0H4Q-4 0 -12 5Q-36 19 -28 52L232 1024Q247 1078 292 1080H420Q440 1080 453 1076Q486 1065 470 1018L392 785Z" />
<glyph unicode="o" glyph-name="o" horiz-adv-x="764" d="M498 566Q522 681 522 752Q522 864 472 864Q442 864 419 842Q373 794 334 693Q246 469 246 350Q246 224 300 224Q331 225 356 248Q395 285 426 356Q479 476 498 566ZM120 822Q146 882 183 932Q238 1007
306 1048Q388 1098 490 1098Q511 1098 530 1096Q657 1080 716 964Q729 940 737 908Q750 857 750 726Q750 680 744 630Q718 416 606 228Q587 196 566 166Q434 -16 286 -16Q256 -16 235 -14Q128 -3 63 94Q0 191 0 350Q0 568 120 822Z" />
<glyph unicode="p" glyph-name="p" horiz-adv-x="834" d="M68 -400H-86Q-109 -400 -125 -388Q-147 -371 -138 -336L214 1036Q225 1078 274 1080H440Q496 1079 484 1034L446 887L494 944Q535 993 556 1015Q614 1074 660 1074H674Q708 1072 774 1008Q851 930 851
836Q851 824 849 806Q824 577 727 329Q639 105 560 44Q492 -7 400 -8Q311 -8 232 50L128 -356Q117 -400 68 -400ZM278 214Q282 213 286 211Q323 200 348 201Q371 201 384 210Q419 237 475 378Q551 570 576 710Q582 744 582 755Q582 770 566 770Q552 770 525 740Q492
704 460 650Q354 467 288 244L278 214Z" />
<glyph unicode="q" glyph-name="q" horiz-adv-x="840" d="M369 176L326 124Q290 80 264 53Q206 -6 160 -6H146Q112 -4 46 60Q-31 138 -31 232Q-31 244 -29 262Q-4 491 93 739Q181 963 260 1024Q328 1075 420 1076Q509 1076 586 1019L593 1046Q602 1080 650 1080H816Q872
1079 860 1034L504 -356Q493 -400 444 -400H290Q263 -400 250 -388Q230 -368 238 -336L369 176ZM542 854Q538 855 534 857Q497 868 472 867Q449 867 436 858Q401 831 345 690Q277 520 244 358Q238 330 238 313Q238 298 255 298Q284 298 360 418Q457 571 532 824L542
854Z" />
<glyph unicode="r" glyph-name="r" horiz-adv-x="674" d="M389 664L226 44Q214 1 166 0H4Q-52 2 -40 46L220 1036Q232 1079 280 1080H442Q498 1078 486 1034L450 899Q492 960 530 1006Q565 1050 594 1070Q617 1086 678 1086H788Q814 1086 826 1076T829 1041T782
984Q777 979 770 973Q733 938 658 844Q607 778 606 752Q607 701 656 654Q663 647 660 637Q651 618 618 616L476 604Q442 602 422 616Q411 624 389 664Z" />
<glyph unicode="s" glyph-name="s" horiz-adv-x="682" d="M422 1098Q422 1098 456 1098Q525 1098 592 1058Q681 1005 722 918Q724 914 725 908Q733 871 708 854L610 786Q578 764 550 796Q485 876 422 890Q406 881 387 854Q344 790 344 724Q344 654 406 644L442
638Q483 631 512 617Q598 580 598 432Q596 264 481 114Q377 -22 248 -22H222Q147 -22 82 18Q6 66 -30 146Q-50 194 -26 222L60 290Q71 300 84 305Q118 316 134 282Q142 266 159 248Q207 196 256 192Q279 204 298 237Q335 302 338 392Q337 469 250 482L224 486Q196
490 173 499Q88 535 88 662Q89 702 98 744Q129 889 229 997Q325 1098 422 1098Z" />
<glyph unicode="t" glyph-name="t" horiz-adv-x="532" d="M528 1080H636Q671 1077 666 1036L632 924Q618 881 580 880H477L264 44Q252 1 204 0H50Q37 0 26 3Q-13 16 -2 64L206 880H130Q96 882 104 928L136 1042Q139 1050 142 1058Q153 1080 180 1080H257L320 1326Q332
1369 380 1370H546Q601 1369 590 1324L528 1080Z" />
<glyph unicode="u" glyph-name="u" horiz-adv-x="822" d="M453 298L336 132Q312 95 289 68Q229 -2 154 -2H142Q98 -2 65 19Q-15 73 12 232Q25 306 90 547Q200 953 236 1052Q246 1079 286 1080H442Q461 1080 467 1062Q472 1046 460 1008Q354 676 310 504Q301 468
301 448Q301 426 313 426Q334 426 378 506Q548 812 650 1034Q672 1078 716 1080H838Q846 1080 854 1075Q878 1061 870 1028L610 54Q596 2 550 0H426Q365 0 388 72L453 298Z" />
<glyph unicode="v" glyph-name="v" horiz-adv-x="872" d="M405 374Q562 720 640 1050Q649 1090 696 1088L854 1076Q862 1075 874 1070Q906 1056 896 1026Q684 401 494 114Q483 98 474 84Q414 0 368 0L235 10Q206 12 187 32Q157 61 162 110Q166 153 170 202Q202
667 160 1006Q160 1007 160 1008Q152 1080 208 1080H362Q369 1080 375 1079Q405 1074 410 1034Q438 731 405 374Z" />
<glyph unicode="w" glyph-name="w" horiz-adv-x="1232" d="M397 361Q541 700 610 1006L608 1036Q607 1042 608 1049Q613 1080 656 1080H798Q830 1077 842 1034Q870 700 850 366Q999 725 1070 1050Q1078 1090 1122 1088L1272 1076Q1281 1074 1290 1070Q1321 1055
1310 1026Q1127 434 936 114Q930 104 924 95Q864 0 820 0L678 8Q663 9 648 23Q610 59 616 124Q631 287 631 487Q547 255 462 114Q451 96 442 81Q389 0 348 0L206 8Q191 9 176 23Q138 59 144 124Q178 521 136 1036Q135 1042 136 1049Q141 1080 184 1080H344Q349
1080 355 1079Q385 1075 390 1034Q418 693 397 361Z" />
<glyph unicode="x" glyph-name="x" horiz-adv-x="804" d="M526 536L650 60Q665 1 604 0H462Q398 0 388 50L342 288L206 36Q187 0 138 0H-34Q-68 0 -74 14Q-82 32 -63 62L259 556L138 1020Q121 1080 184 1080H326Q390 1080 400 1030L455 765L622 1054Q637 1080
682 1080H850Q858 1080 866 1078Q901 1066 871 1023L526 536Z" />
<glyph unicode="y" glyph-name="y" horiz-adv-x="832" d="M425 241L350 122Q306 51 268 32Q247 22 192 22H180Q111 22 62 82Q54 92 45 108Q0 193 24 294Q33 330 62 438Q202 956 236 1052Q246 1079 286 1080H442Q481 1080 464 1022Q462 1016 460 1008Q328 574 310
504Q302 469 302 450Q302 427 314 426Q335 426 378 506Q566 850 650 1034Q672 1078 716 1080H808H832Q888 1077 874 1026L601 48Q539 -176 508 -236Q480 -288 424 -327Q349 -380 292 -380Q246 -380 188 -346L-16 -230Q-31 -222 -38 -213Q-56 -187 -32 -158L32 -72Q32
-72 36 -68Q65 -38 98 -56L272 -150Q279 -154 286 -154Q310 -154 326 -104L425 241Z" />
<glyph unicode="z" glyph-name="z" horiz-adv-x="758" d="M250 202H370L382 248Q392 287 444 292L588 304Q597 304 605 303Q642 296 632 256L576 44Q564 1 516 0H506H374H-38Q-93 1 -108 41Q-122 82 -88 126Q-88 126 475 880H360L348 832Q338 793 286 788L142
776Q133 776 125 777Q88 784 98 824L156 1040Q168 1079 214 1080H744Q786 1079 811 1046Q847 994 792 920L250 202Z" />
<glyph unicode="{" glyph-name="braceleft" horiz-adv-x="644" d="M414 -324L186 -328Q109 -328 45 -281Q-40 -218 -54 -112Q-63 -66 -51 -7Q-33 75 54 238Q132 383 148 438Q182 552 94 586L48 604Q1 623 14 682L50 832Q50 833 51 836Q64 878 122 892L202 912Q212
915 221 918Q308 951 312 1073Q313 1100 302 1224Q291 1354 308 1450Q360 1728 680 1732H920Q979 1731 966 1668L940 1550Q937 1538 929 1526Q906 1494 874 1494H716Q672 1494 638 1484Q507 1445 532 1234Q536 1196 539 1168Q563 932 508 854Q467 795 407 761Q383
748 290 712Q322 686 351 649Q436 542 416 456Q400 385 331 257Q251 111 236 76Q200 -7 208 -45Q217 -86 294 -86H474Q533 -87 520 -150L494 -268Q491 -280 483 -292Q460 -324 426 -324H414Z" />
<glyph unicode="|" glyph-name="bar" horiz-adv-x="478" d="M570 1472Q570 1472 102 -356Q90 -399 42 -400H-96Q-109 -400 -120 -397Q-159 -384 -148 -336L316 1474Q328 1517 376 1518H526Q579 1517 570 1472Z" />
<glyph unicode="}" glyph-name="braceright" horiz-adv-x="684" d="M270 1728L498 1732Q575 1732 639 1685Q724 1622 738 1516Q747 1470 735 1411Q717 1329 630 1166Q552 1021 536 966Q502 852 590 818L636 800Q683 781 670 722L634 572Q634 571 633 568Q620 526
562 512L482 492Q472 489 463 486Q376 453 372 331Q371 304 382 180Q393 50 376 -46Q324 -324 4 -328H-236Q-295 -327 -282 -264L-256 -146Q-253 -134 -245 -122Q-222 -90 -190 -90H-32Q12 -90 46 -80Q177 -41 152 170Q148 208 145 236Q121 472 176 550Q217 609
277 643Q301 656 394 692Q362 718 333 755Q248 862 268 948Q284 1019 353 1147Q433 1293 448 1328Q484 1411 476 1449Q467 1490 390 1490H210Q151 1491 164 1554L190 1672Q193 1684 201 1696Q224 1728 258 1728H270Z" />
<glyph unicode="~" glyph-name="asciitilde" horiz-adv-x="0" d="M108 738Q108 738 138 856Q138 857 139 859Q146 883 170 896Q202 909 250 917Q377 936 480 904Q487 902 495 900Q631 862 794 904Q811 908 824 902Q851 887 840 840L812 716Q811 712 809 707Q799
682 760 670Q582 619 464 666Q326 722 146 666Q131 661 121 665Q91 677 108 738Z" />
<glyph unicode="&#xa0;" glyph-name="nbspace" horiz-adv-x="0" />
<glyph unicode="&#xa1;" glyph-name="exclamdown" horiz-adv-x="528" d="M370 1326Q370 1370 395 1406Q438 1466 518 1466H546Q588 1466 627 1433Q680 1387 680 1326Q680 1282 653 1246Q609 1188 528 1188H502Q459 1188 422 1219Q370 1262 370 1326ZM556 1012Q556
1012 336 22Q324 -21 276 -22H46Q-7 -21 2 24L342 1014Q354 1057 402 1058H512Q565 1057 556 1012Z" />
<glyph unicode="&#xa2;" glyph-name="cent" horiz-adv-x="796" d="M174 -190Q162 -190 152 -187Q113 -175 124 -128L160 0Q123 16 95 46Q-13 163 38 460Q76 673 164 825Q274 1012 429 1056L478 1238Q490 1279 536 1280H680Q731 1279 722 1236L674 1051Q694 1042
712 1029Q793 969 793 847Q792 715 700 596Q698 593 696 590Q679 570 644 576L522 602Q514 603 507 605Q470 616 486 660Q508 725 520 765Q554 884 518 892Q497 895 445 820Q353 687 310 522Q287 437 277 360Q257 205 300 192Q316 196 333 212Q363 241 416 354Q432
388 440 404Q454 428 482 422L628 358Q631 357 635 355Q674 334 652 290Q546 78 408 11L366 -148Q353 -189 308 -190H174Z" />
<glyph unicode="&#xa3;" glyph-name="sterling" horiz-adv-x="990" d="M-152 52Q-152 52 -106 202Q-101 226 -82 240L-64 254Q-46 268 -25 284T28 327T87 382T144 447T194 520H78Q72 520 66 521Q24 527 42 592L72 718Q75 735 78 744Q84 758 102 758H233Q223 926
253 1057Q308 1298 485 1383Q616 1446 764 1408Q918 1368 968 1232Q1008 1118 964 986Q963 982 960 974T956 962Q945 932 916 924L754 880Q732 874 718 884Q700 899 712 930Q792 1136 706 1178Q643 1206 588 1174Q464 1102 476 758H688Q743 757 730 694L706 576Q703
564 696 552Q674 520 642 520H463Q454 495 440 470Q410 416 337 345Q311 320 300 308Q362 298 414 278Q479 254 529 243Q659 216 820 268Q832 271 843 264Q866 247 858 206L816 64Q814 58 812 53Q802 29 754 16T672 -4Q521 -32 342 38Q314 49 282 54Q184 70 15
20Q-97 -13 -122 -14Q-126 -14 -131 -14Q-165 -10 -152 52Z" />
<glyph unicode="&#xa4;" glyph-name="currency" horiz-adv-x="1024" d="M676 618Q691 660 698 727Q712 866 648 866Q630 866 612 859Q559 839 499 721Q414 550 414 438Q414 394 419 375Q434 318 503 341Q552 359 607 456Q658 544 676 618ZM282 832Q289 846 299
861L246 1032Q231 1082 244 1103Q259 1126 282 1138L402 1198Q422 1208 435 1206Q468 1202 484 1146L516 1035Q586 1060 668 1060Q730 1060 775 1047L850 1160Q864 1182 881 1190Q898 1197 918 1186L1048 1110Q1070 1097 1080 1082Q1091 1063 1064 1026L934 859Q938
832 938 752Q938 713 932 672Q905 495 788 338L770 315L840 98Q847 77 844 63Q839 45 798 22L684 -42Q670 -50 655 -54Q600 -67 584 2L548 149Q503 134 456 134Q413 134 382 138Q382 138 283 -23Q275 -36 256 -39Q239 -41 224 -34L62 71Q53 78 51 90Q48 113 60
129L181 303Q158 366 158 438Q158 588 282 832Z" />
<glyph unicode="&#xa5;" glyph-name="yen" horiz-adv-x="872" d="M-20 474Q-20 474 263 474L284 558H36Q28 558 21 559Q-19 566 -2 630L16 694Q19 709 23 719Q29 734 48 734H293Q289 792 282 860Q248 1189 196 1378Q195 1380 195 1382Q177 1441 236 1446L382 1454Q391
1455 399 1454Q432 1453 436 1430Q487 1126 498 858Q521 892 539 919Q730 1209 824 1422Q838 1450 884 1448L1054 1440Q1067 1439 1079 1436Q1111 1426 1100 1406Q906 1066 671 734H870Q929 733 916 670L904 614Q901 602 893 590Q870 558 836 558H559L537 474H802Q861
473 848 410L836 354Q833 342 825 330Q802 298 768 298H493L428 44Q416 1 368 0H198Q185 0 175 6Q149 23 158 62L218 298H-32Q-40 298 -47 299Q-87 306 -70 370L-52 434Q-49 449 -45 459Q-39 474 -20 474Z" />
<glyph unicode="&#xa6;" glyph-name="brokenbar" horiz-adv-x="528" d="M572 1478Q572 1478 374 718Q362 675 314 674H164Q111 675 120 720L318 1480Q330 1523 378 1524H528Q581 1523 572 1478ZM300 402L102 -358Q90 -401 42 -402H-108Q-161 -401 -152 -356L46
404Q58 447 106 448H256Q309 447 300 402Z" />
<glyph unicode="&#xa7;" glyph-name="section" horiz-adv-x="1040" d="M270 1140Q323 1170 393 1163Q404 1364 590 1472Q653 1508 694 1508Q875 1507 1000 1273Q1024 1227 992 1198L890 1104Q877 1092 859 1087Q810 1074 778 1122Q731 1190 682 1226Q680 1218
678 1208Q662 1124 698 1022Q719 959 758 874Q791 802 838 687Q910 507 920 366Q922 337 922 309Q922 72 762 -24Q716 -51 660 -52Q634 -52 604 -44Q604 -45 604 -48Q598 -267 442 -362Q385 -393 334 -394Q162 -393 36 -186Q35 -184 33 -182Q2 -130 48 -78L132
6Q145 20 168 25Q214 35 240 2Q323 -108 336 -116Q337 -111 339 -103Q345 -66 344 -30Q344 13 336 54Q322 119 255 265Q233 313 222 340Q188 420 184 429Q85 667 83 804Q83 1035 270 1140ZM510 741V740Q506 747 500 755Q410 888 370 892Q368 884 367 873Q361 817
388 708Q414 615 483 453Q504 404 514 380L526 349Q537 329 553 309Q601 247 650 226Q652 231 654 238Q658 258 654 340Q652 366 645 396Q627 479 544 666L510 741Z" />
<glyph unicode="&#xa8;" glyph-name="dieresis" horiz-adv-x="1046" d="M246 1324Q246 1364 269 1398Q309 1456 386 1456H412Q451 1456 488 1426Q540 1383 540 1324Q540 1283 515 1249Q473 1192 396 1192H372Q332 1192 297 1219Q246 1260 246 1324ZM646 1324Q646
1364 669 1398Q709 1456 786 1456H812Q851 1456 888 1426Q940 1383 940 1324Q940 1283 915 1249Q873 1192 796 1192H772Q732 1192 697 1219Q646 1260 646 1324Z" />
<glyph unicode="&#xa9;" glyph-name="copyright" horiz-adv-x="1638" d="M730 440Q745 448 760 463Q791 494 848 606Q860 630 886 624L1024 564Q1029 561 1034 559Q1067 539 1046 500Q1014 435 980 388Q872 240 700 240Q554 241 498 374Q448 494 480 674Q527 939
666 1079Q788 1200 942 1192Q1005 1195 1060 1168Q1143 1125 1167 1037Q1200 918 1102 794Q1101 792 1099 790Q1084 768 1050 774L936 798Q931 799 926 800Q886 811 902 854Q933 947 938 982Q944 1024 916 1030Q898 1032 860 989Q777 893 736 732Q717 661 707 598Q686
452 730 440ZM362 800Q358 784 354 767Q288 482 382 307Q483 120 742 120Q897 120 1020 215Q1194 350 1268 640Q1279 685 1287 729Q1329 982 1238 1146Q1137 1328 900 1328Q736 1328 605 1220Q436 1080 362 800ZM150 886Q220 1125 374 1275Q582 1476 896 1476Q962
1476 1021 1470Q1251 1445 1386 1304Q1451 1237 1489 1146Q1585 913 1488 578Q1455 464 1406 370Q1199 -30 732 -30Q689 -30 646 -26Q400 -2 258 140Q202 197 164 273Q43 519 150 886Z" />
<glyph unicode="&#xaa;" glyph-name="ordfeminine" horiz-adv-x="660" d="M428 1119Q398 1115 371 1095Q318 1053 318 982Q318 972 319 965Q321 946 336 946Q342 946 352 955Q380 979 390 1006Q415 1070 428 1119ZM548 981Q580 1010 592 1036Q602 1057 624 1048L690
1016Q711 1004 702 986Q687 959 667 933Q581 820 480 800Q478 800 474 800Q442 800 434 812L411 854Q397 841 379 829Q307 784 242 812Q149 853 148 950Q148 958 149 968Q157 1079 250 1167Q344 1255 461 1262L464 1276Q471 1309 469 1327Q466 1349 442 1358Q436
1356 427 1353Q375 1331 346 1300Q334 1289 320 1298L256 1358Q254 1359 251 1362Q238 1375 244 1388Q244 1389 245 1390Q268 1433 347 1486Q448 1553 502 1540H503Q528 1534 547 1528T589 1511T628 1481T650 1434Q658 1392 645 1310Q619 1149 548 981Z" />
<glyph unicode="&#xab;" glyph-name="guillemotleft" horiz-adv-x="872" d="M760 536L866 210Q878 176 850 165Q841 162 832 162H736Q693 162 673 197Q670 203 668 208L556 522Q541 566 570 605Q572 607 572 608L828 902Q863 939 910 940H1006Q1036 940 1039 918Q1040
904 1028 888L760 536ZM392 536L498 210Q510 176 482 165Q473 162 464 162H368Q325 162 305 197Q302 203 300 208L188 522Q173 566 202 605Q204 607 204 608L460 902Q495 939 542 940H638Q669 940 671 918Q672 904 660 888L392 536Z" />
<glyph unicode="&#xac;" glyph-name="logicalnot" horiz-adv-x="1804" d="M1240 754H284Q276 754 269 755Q229 762 246 826L274 936Q281 961 292 975Q306 992 348 992Q348 992 1478 992Q1555 991 1534 906L1398 392Q1386 349 1338 348H1188Q1135 349 1144 394L1240 754Z" />
<glyph unicode="&#xae;" glyph-name="registered" horiz-adv-x="1638" d="M362 800Q285 504 377 323Q476 132 742 132Q915 132 1033 219Q1190 336 1268 640Q1277 674 1283 709Q1331 967 1242 1132Q1142 1316 900 1316Q859 1316 820 1311Q485 1264 362 800ZM150
886Q220 1125 374 1275Q582 1476 896 1476Q962 1476 1021 1470Q1251 1445 1386 1304Q1451 1237 1489 1146Q1585 913 1488 578Q1455 464 1406 370Q1199 -30 732 -30Q689 -30 646 -26Q400 -2 258 140Q202 197 164 273Q43 519 150 886ZM782 773L850 780Q855 781 861
781Q938 793 978 854Q995 898 996 948Q995 989 938 1004Q908 1011 847 1015L782 773ZM627 1005Q625 1005 566 996Q554 995 544 1000Q525 1012 532 1036L568 1152Q575 1170 606 1180Q647 1190 735 1194Q906 1201 988 1186Q1033 1177 1065 1165Q1204 1114 1204 964Q1204
921 1184 868Q1148 776 1088 732Q1039 689 987 666L1060 340Q1060 339 1060 338Q1068 282 1018 282H892Q885 282 878 285Q844 297 836 350L780 636H745L658 314Q648 285 610 284H476Q468 284 460 287Q436 298 444 326L627 1005Z" />
<glyph unicode="&#xaf;" glyph-name="overscore" horiz-adv-x="796" d="M160 1718Q160 1718 862 1718Q893 1715 880 1674L852 1582Q849 1572 848 1568Q834 1526 810 1526H122Q91 1526 88 1541Q88 1544 98 1582L130 1694Q131 1698 133 1703Q140 1718 160 1718Z" />
<glyph unicode="&#xb0;" glyph-name="degree" horiz-adv-x="960" d="M402 1308Q402 1240 454 1208Q482 1192 516 1192Q590 1192 646 1248Q698 1300 698 1370Q698 1442 641 1472Q614 1486 582 1486Q506 1486 450 1424Q402 1372 402 1308ZM600 1630Q728 1630 798
1539Q848 1472 848 1380Q848 1226 730 1130Q627 1051 504 1048Q377 1048 305 1139Q252 1207 252 1300Q252 1445 365 1542Q462 1625 586 1630Q594 1630 600 1630Z" />
<glyph unicode="&#xb1;" glyph-name="plusminus" horiz-adv-x="1038" d="M50 220Q50 220 750 220Q791 219 784 160L764 48Q762 37 758 26Q743 -6 716 -6H32Q-9 -5 4 62L26 182Q28 193 30 201Q36 220 50 220ZM810 544H569L520 356Q507 315 462 314H320Q273 317
278 358L327 544H116Q108 544 101 545Q63 552 80 612L104 716Q106 725 109 733Q124 770 168 770H386L426 924Q438 965 484 966H626Q673 963 668 922L628 770H856Q912 769 900 710L874 598Q872 586 864 573Q843 544 810 544Z" />
<glyph unicode="&#xb2;" glyph-name="twosuperior" horiz-adv-x="680" d="M387 818H602Q643 816 636 776L614 676Q612 671 609 665Q592 640 562 640H118Q84 641 65 666Q37 705 82 754L474 1166Q481 1174 489 1183Q549 1255 556 1319Q563 1382 502 1382Q487 1382
472 1370Q430 1338 430 1268Q430 1267 429 1264Q421 1238 390 1234L234 1216Q228 1215 222 1216Q200 1218 200 1250Q201 1362 291 1444Q390 1534 538 1534Q625 1534 685 1495Q771 1440 771 1333Q772 1205 648 1078L387 818Z" />
<glyph unicode="&#xb3;" glyph-name="threesuperior" horiz-adv-x="648" d="M599 1099Q661 1065 662 940Q662 933 662 924Q655 807 559 719Q455 623 312 622Q249 622 202 643Q94 693 94 842Q95 881 120 898L254 954Q276 965 295 961Q322 954 322 924Q311 779 348
778Q358 778 368 783Q407 802 420 880Q426 912 424 938Q418 1010 346 1010Q310 1013 306 1044L316 1118Q322 1150 360 1152Q396 1151 431 1169Q499 1205 510 1282Q514 1366 476 1374Q461 1375 444 1363Q402 1333 402 1268Q396 1232 362 1222L206 1212Q199 1211
192 1212Q172 1216 172 1252Q173 1363 264 1446Q364 1536 510 1536Q574 1536 622 1517Q740 1471 740 1326Q740 1292 728 1256Q696 1160 599 1099Z" />
<glyph unicode="&#xb4;" glyph-name="acute" horiz-adv-x="678" d="M526 1448Q538 1448 547 1442Q569 1427 540 1398L320 1178Q292 1151 252 1150H154Q146 1150 140 1152Q119 1160 134 1184L272 1414Q294 1447 334 1448H526Z" />
<glyph unicode="&#xb5;" glyph-name="mu" horiz-adv-x="822" d="M248 1080Q248 1080 442 1080Q481 1079 464 1022Q462 1016 460 1008Q328 574 310 504Q292 431 312 426T378 506Q584 889 650 1034Q672 1078 716 1080H838Q846 1080 854 1075Q878 1061 870 1028L610
54Q597 2 550 0H426Q365 0 388 72L447 276L356 132Q332 95 309 68Q249 -2 174 -2H160Q160 -48 146 -102L82 -356Q70 -399 22 -400H-112Q-125 -400 -136 -397Q-175 -384 -164 -336L188 1036Q200 1079 248 1080Z" />
<glyph unicode="&#xb6;" glyph-name="paragraph" horiz-adv-x="1352" d="M901 1240L496 -356Q484 -399 436 -400H298Q285 -400 274 -397Q235 -384 246 -336L480 586Q377 605 303 662Q178 759 178 928Q178 963 183 997Q210 1192 373 1316Q549 1448 812 1448H1496Q1504
1448 1512 1447Q1539 1441 1530 1400L1500 1280Q1499 1275 1497 1270Q1487 1240 1444 1240H1337L932 -356Q920 -399 872 -400H734Q721 -400 710 -397Q671 -384 682 -336L1083 1240H901Z" />
<glyph unicode="&#xb7;" glyph-name="middot" horiz-adv-x="466" d="M172 700Q172 740 195 774Q235 832 312 832H338Q377 832 414 802Q466 759 466 700Q466 659 441 625Q399 568 322 568H298Q258 568 223 595Q172 636 172 700Z" />
<glyph unicode="&#xb8;" glyph-name="cedilla" horiz-adv-x="684" d="M394 -66Q394 -66 520 -106Q521 -106 523 -107Q554 -117 542 -166Q521 -259 441 -324Q333 -411 180 -404Q153 -402 144 -380L120 -306Q107 -260 146 -258Q227 -258 282 -217Q344 -170 344 -98Q344
-83 352 -73Q367 -56 394 -66Z" />
<glyph unicode="&#xb9;" glyph-name="onesuperior" horiz-adv-x="448" d="M589 1520L594 1524Q604 1525 613 1519Q631 1506 624 1484L380 668Q370 641 336 640H192Q183 640 175 644Q155 655 162 680L338 1265L310 1238Q280 1209 248 1208H138Q119 1209 109 1223Q91
1251 132 1286L348 1452Q352 1456 362 1464Q367 1468 370 1470Q436 1524 466 1524H592L589 1520Z" />
<glyph unicode="&#xba;" glyph-name="ordmasculine" horiz-adv-x="748" d="M456 986Q524 987 573 1097Q615 1192 622 1296Q620 1366 568 1372Q505 1367 451 1242Q412 1142 412 1064Q412 1037 415 1022Q421 986 456 986ZM210 1082Q210 1102 212 1124Q226 1273 315
1388Q425 1530 592 1530Q609 1530 625 1528Q731 1517 772 1448Q774 1445 776 1441Q810 1381 810 1278Q810 1254 806 1225Q787 1089 706 976Q600 828 452 828Q346 828 286 884Q211 955 210 1082Z" />
<glyph unicode="&#xbb;" glyph-name="guillemotright" horiz-adv-x="872" d="M702 566L596 892Q584 926 612 937Q621 940 630 940H726Q769 940 789 905Q792 899 794 894L906 580Q921 536 892 497Q890 495 890 494L634 200Q599 163 552 162H456Q425 162 423 184Q422
198 434 214L702 566ZM326 566L220 892Q208 926 236 937Q245 940 254 940H350Q393 940 413 905Q416 899 418 894L530 580Q545 536 516 497Q514 495 514 494L258 200Q223 163 176 162H80Q49 162 47 184Q46 198 58 214L326 566Z" />
<glyph unicode="&#xbc;" glyph-name="onequarter" horiz-adv-x="1998" d="M1818 192Q1818 192 1752 192L1704 28Q1694 1 1658 0H1508Q1500 0 1493 3Q1470 13 1478 40L1522 192H1254Q1188 193 1168 232Q1148 274 1188 324L1602 856Q1605 860 1609 863Q1629 884
1656 884H1818Q1832 884 1842 873Q1860 853 1842 830L1450 348H1568L1610 492Q1620 519 1656 520H1806Q1815 520 1823 516Q1843 505 1836 480L1797 348H1868Q1870 348 1873 348Q1914 348 1902 310L1870 228Q1869 225 1867 221Q1853 192 1818 192ZM266 -54L74 -52Q53
-51 43 -30Q31 -1 52 20L1508 1482Q1553 1527 1604 1528H1798Q1819 1527 1828 1506Q1839 1477 1818 1456L350 -18Q339 -29 329 -37Q306 -54 266 -54ZM683 1484L688 1488Q698 1489 707 1483Q725 1470 718 1448L474 632Q464 605 430 604H286Q277 604 269 608Q249
619 256 644L432 1229L404 1202Q374 1173 342 1172H232Q213 1173 203 1187Q185 1215 226 1250L442 1416Q446 1420 456 1428Q461 1432 464 1434Q530 1488 560 1488H686L683 1484Z" />
<glyph unicode="&#xbd;" glyph-name="onehalf" horiz-adv-x="1998" d="M266 -54Q266 -54 74 -52Q53 -51 43 -30Q31 -1 52 20L1508 1482Q1553 1527 1604 1528H1798Q1819 1527 1828 1506Q1839 1477 1818 1456L350 -18Q339 -29 329 -37Q306 -54 266 -54ZM1535 178H1750Q1791
176 1784 136L1762 36Q1760 31 1757 25Q1740 0 1710 0H1266Q1232 1 1213 26Q1185 65 1230 114L1622 526Q1629 534 1637 543Q1697 615 1704 679Q1710 742 1650 742Q1635 742 1620 730Q1578 698 1578 628Q1578 627 1577 624Q1569 598 1538 594L1382 576Q1376 575
1370 576Q1348 578 1348 610Q1349 722 1439 804Q1538 894 1686 894Q1773 894 1833 855Q1919 800 1919 693Q1920 565 1796 438L1535 178ZM683 1484L688 1488Q698 1489 707 1483Q725 1470 718 1448L474 632Q464 605 430 604H286Q277 604 269 608Q249 619 256 644L432
1229L404 1202Q374 1173 342 1172H232Q213 1173 203 1187Q185 1215 226 1250L442 1416Q446 1420 456 1428Q461 1432 464 1434Q530 1488 560 1488H686L683 1484Z" />
<glyph unicode="&#xbe;" glyph-name="threequarters" horiz-adv-x="1998" d="M1774 192Q1774 192 1708 192L1660 28Q1650 1 1614 0H1464Q1456 0 1449 3Q1426 13 1434 40L1478 192H1210Q1144 193 1124 232Q1104 274 1144 324L1558 856Q1561 860 1565 863Q1585 884
1612 884H1774Q1788 884 1798 873Q1816 853 1798 830L1406 348H1524L1566 492Q1576 519 1612 520H1762Q1771 520 1779 516Q1799 505 1792 480L1753 348H1824Q1826 348 1829 348Q1870 348 1858 310L1826 228Q1825 225 1823 221Q1809 192 1774 192ZM266 -54L74 -52Q53
-51 43 -30Q31 -1 52 20L1508 1482Q1553 1527 1604 1528H1798Q1819 1527 1828 1506Q1839 1477 1818 1456L350 -18Q339 -29 329 -37Q306 -54 266 -54ZM593 1063Q655 1029 656 904Q656 897 656 888Q649 771 553 683Q449 587 306 586Q243 586 196 607Q88 657 88 806Q89
845 114 862L248 918Q270 929 289 925Q316 918 316 888Q305 743 342 742Q352 742 362 747Q401 766 414 844Q420 876 418 902Q412 974 340 974Q304 977 300 1008Q300 1008 310 1082Q316 1114 354 1116Q390 1115 425 1133Q493 1169 504 1246Q508 1330 470 1338Q455
1339 438 1327Q396 1297 396 1232Q390 1196 356 1186L200 1176Q193 1175 186 1176Q166 1180 166 1216Q167 1327 258 1410Q358 1500 504 1500Q568 1500 616 1481Q734 1435 734 1290Q734 1256 722 1220Q690 1124 593 1063Z" />
<glyph unicode="&#xbf;" glyph-name="questiondown" horiz-adv-x="732" d="M758 1314Q758 1274 735 1240Q695 1182 618 1182H592Q553 1182 516 1212Q464 1255 464 1314Q464 1355 489 1389Q531 1446 608 1446H632Q672 1446 707 1419Q758 1378 758 1314ZM436 1090Q435
1094 435 1099Q435 1137 496 1130L600 1120Q643 1115 658 1070Q681 997 620 878Q591 824 566 788Q482 665 378 666Q338 666 306 642Q270 613 240 534Q232 512 224 467Q196 324 196 234Q197 221 206 214Q226 202 252 228Q324 288 338 306Q339 307 341 309Q372 341
408 316L492 260Q502 253 507 241Q517 215 504 196Q471 146 402 80Q302 -15 260 -20Q257 -20 253 -21Q190 -24 95 32Q7 83 -10 128Q-50 238 -23 413Q4 580 68 716Q98 778 193 843Q314 925 418 928Q424 942 428 959Q445 1028 436 1090Z" />
<glyph unicode="&#xc0;" glyph-name="Agrave" horiz-adv-x="1020" d="M670 1814Q710 1813 732 1780L868 1560Q887 1531 860 1519Q851 1516 842 1516H756Q716 1517 688 1544L452 1778Q432 1796 447 1809Q452 1813 458 1814H670ZM427 628H644L679 1142L427 628ZM310
390L138 38Q115 -6 62 -2L-94 4Q-95 4 -98 4Q-162 9 -138 78L530 1364Q537 1378 547 1392Q586 1444 640 1444L870 1446Q889 1447 905 1440Q951 1419 948 1350L874 44Q868 2 814 0H652Q645 0 638 1Q600 9 606 54L628 390H310Z" />
<glyph unicode="&#xc1;" glyph-name="Aacute" horiz-adv-x="1023" d="M1020 1816Q1032 1816 1041 1810Q1063 1795 1034 1766L814 1546Q786 1519 746 1518H648Q640 1518 634 1520Q613 1528 628 1552L766 1782Q788 1815 828 1816H1020ZM427 628H644L679 1142L427
628ZM310 390L138 38Q115 -6 62 -2L-94 4Q-95 4 -98 4Q-162 9 -138 78L530 1364Q537 1378 547 1392Q586 1444 640 1444L870 1446Q889 1447 905 1440Q951 1419 948 1350L874 44Q868 2 814 0H652Q645 0 638 1Q600 9 606 54L628 390H310Z" />
<glyph unicode="&#xc2;" glyph-name="Acircumflex" horiz-adv-x="1020" d="M795 1659L674 1538Q654 1518 632 1516Q626 1516 618 1516H504Q477 1516 477 1536Q478 1549 492 1562L758 1806Q792 1834 809 1834Q811 1834 814 1834L850 1832Q878 1829 896 1799Q897
1797 898 1796L1034 1550Q1048 1528 1030 1519Q1023 1516 1014 1516H890Q861 1516 853 1529Q851 1533 848 1538L795 1659ZM427 628H644L679 1142L427 628ZM310 390L138 38Q115 -6 62 -2L-94 4Q-95 4 -98 4Q-162 9 -138 78L530 1364Q537 1378 547 1392Q586 1444
640 1444L870 1446Q889 1447 905 1440Q951 1419 948 1350L874 44Q868 2 814 0H652Q645 0 638 1Q600 9 606 54L628 390H310Z" />
<glyph unicode="&#xc3;" glyph-name="Atilde" horiz-adv-x="1020" d="M824 1806Q938 1766 982 1766Q993 1766 1003 1767Q1038 1770 1104 1800Q1120 1807 1133 1799Q1157 1782 1146 1738L1118 1642Q1109 1607 1072 1582Q1065 1578 1059 1574Q1016 1548 950 1548Q944
1548 937 1549Q870 1554 810 1578Q802 1582 786 1589Q705 1626 668 1626Q605 1626 554 1596Q532 1583 517 1582Q486 1581 494 1648L500 1712Q507 1766 534 1786Q610 1837 696 1838Q712 1838 731 1834Q749 1831 824 1806ZM427 628H644L679 1142L427 628ZM310 390L138
38Q115 -6 62 -2L-94 4Q-95 4 -98 4Q-162 9 -138 78L530 1364Q537 1378 547 1392Q586 1444 640 1444L870 1446Q889 1447 905 1440Q951 1419 948 1350L874 44Q868 2 814 0H652Q645 0 638 1Q600 9 606 54L628 390H310Z" />
<glyph unicode="&#xc4;" glyph-name="Adieresis" horiz-adv-x="1020" d="M444 1640Q444 1680 467 1714Q507 1772 584 1772H610Q649 1772 686 1742Q738 1699 738 1640Q738 1599 713 1565Q671 1508 594 1508H570Q530 1508 495 1535Q444 1576 444 1640ZM844 1640Q844
1680 867 1714Q907 1772 984 1772H1010Q1049 1772 1086 1742Q1138 1699 1138 1640Q1138 1599 1113 1565Q1071 1508 994 1508H970Q930 1508 895 1535Q844 1576 844 1640ZM427 628H644L679 1142L427 628ZM310 390L138 38Q115 -6 62 -2L-94 4Q-95 4 -98 4Q-162 9 -138
78L530 1364Q537 1378 547 1392Q586 1444 640 1444L870 1446Q889 1447 905 1440Q951 1419 948 1350L874 44Q868 2 814 0H652Q645 0 638 1Q600 9 606 54L628 390H310Z" />
<glyph unicode="&#xc5;" glyph-name="Aring" horiz-adv-x="1108" d="M670 1448Q654 1401 662 1356Q674 1292 726 1276Q759 1267 794 1284Q851 1312 876 1382Q892 1430 882 1476Q863 1558 792 1558Q771 1558 748 1547Q692 1518 670 1448ZM458 1418Q474 1541 571
1630Q674 1724 808 1724Q936 1722 1022 1633Q1105 1541 1088 1418Q1069 1277 950 1187L884 58Q882 29 870 12Q860 0 822 0H660Q610 1 614 54L637 390H317L149 38Q129 -4 70 -2L-86 4Q-107 5 -122 14Q-150 33 -127 78L483 1261Q448 1332 458 1418ZM690 1157L433
628H653L690 1157Z" />
<glyph unicode="&#xc6;" glyph-name="AE" horiz-adv-x="1532" d="M469 628H707L800 1156L469 628ZM319 390L98 38Q73 -2 26 -2Q24 -2 22 -2L-154 4Q-177 5 -192 16Q-224 39 -190 90L658 1364Q714 1448 776 1448H1602Q1661 1448 1648 1384L1622 1266Q1619 1254
1611 1242Q1591 1210 1554 1210H1072L1020 904H1434Q1489 904 1476 840L1452 722Q1450 711 1442 698Q1421 666 1388 666H980L907 238H1306Q1365 238 1352 174L1326 56Q1323 44 1315 32Q1295 0 1258 0H652Q633 0 614 17Q601 28 606 54L665 390H319Z" />
<glyph unicode="&#xc7;" glyph-name="Ccedilla" horiz-adv-x="900" d="M228 -62Q228 -62 354 -102Q355 -102 357 -103Q388 -113 376 -162Q355 -255 275 -320Q167 -407 14 -400Q-13 -398 -22 -376L-46 -302Q-59 -256 -20 -254Q61 -254 116 -213Q178 -166 178 -94Q178
-79 186 -69Q201 -52 228 -62ZM929 1068Q932 1032 888 1014L712 962Q698 958 680 964Q650 976 648 1008Q646 1031 644 1050Q636 1121 606 1196Q594 1200 582 1200Q459 1199 342 752Q289 549 289 404Q289 243 340 228H358Q376 241 393 258Q434 301 504 436Q518 463
529 475Q548 495 586 478L750 406Q759 402 765 393Q781 366 756 326Q650 156 564 82Q450 -16 288 -16Q228 -16 160 26Q89 71 48 158Q1 262 1 417Q1 587 58 816Q128 1095 253 1257Q413 1464 598 1464Q775 1464 855 1334Q915 1237 929 1068Z" />
<glyph unicode="&#xc8;" glyph-name="Egrave" horiz-adv-x="906" d="M590 1816Q630 1815 652 1782L788 1562Q807 1533 780 1521Q771 1518 762 1518H676Q636 1519 608 1546L372 1780Q352 1798 367 1811Q372 1815 378 1816H590ZM465 904H806Q861 903 848 840L824
722Q821 710 814 698Q792 666 760 666H405L295 238H678Q737 237 724 174L698 56Q695 44 687 32Q664 0 630 0H16Q3 0 -8 6Q-34 23 -24 62L269 1210H198Q190 1210 183 1211Q143 1218 160 1282L192 1408Q196 1426 201 1437T232 1448H974Q1033 1447 1020 1384L994 1266Q991
1254 983 1242Q960 1210 926 1210H543L465 904Z" />
<glyph unicode="&#xc9;" glyph-name="Eacute" horiz-adv-x="906" d="M882 1814Q894 1814 903 1808Q925 1793 896 1764L676 1544Q648 1517 608 1516H510Q502 1516 496 1518Q475 1526 490 1550L628 1780Q650 1813 690 1814H882ZM465 904H806Q861 903 848 840L824
722Q821 710 814 698Q792 666 760 666H405L295 238H678Q737 237 724 174L698 56Q695 44 687 32Q664 0 630 0H16Q3 0 -8 6Q-34 23 -24 62L269 1210H198Q190 1210 183 1211Q143 1218 160 1282L192 1408Q196 1426 201 1437T232 1448H974Q1033 1447 1020 1384L994 1266Q991
1254 983 1242Q960 1210 926 1210H543L465 904Z" />
<glyph unicode="&#xca;" glyph-name="Ecircumflex" horiz-adv-x="906" d="M695 1661L574 1540Q554 1520 532 1518Q526 1518 518 1518H404Q377 1518 377 1538Q378 1551 392 1564L658 1808Q692 1836 709 1836Q711 1836 714 1836L750 1834Q778 1831 796 1801Q797
1799 798 1798L934 1552Q948 1530 930 1521Q923 1518 914 1518H790Q761 1518 753 1531Q751 1535 748 1540L695 1661ZM465 904H806Q861 903 848 840L824 722Q821 710 814 698Q792 666 760 666H405L295 238H678Q737 237 724 174L698 56Q695 44 687 32Q664 0 630 0H16Q3
0 -8 6Q-34 23 -24 62L269 1210H198Q190 1210 183 1211Q143 1218 160 1282L192 1408Q196 1426 201 1437T232 1448H974Q1033 1447 1020 1384L994 1266Q991 1254 983 1242Q960 1210 926 1210H543L465 904Z" />
<glyph unicode="&#xcb;" glyph-name="Edieresis" horiz-adv-x="912" d="M314 1654Q314 1694 337 1728Q377 1786 454 1786H480Q519 1786 556 1756Q608 1713 608 1654Q608 1613 583 1579Q541 1522 464 1522H440Q400 1522 365 1549Q314 1590 314 1654ZM714 1654Q714
1694 737 1728Q777 1786 854 1786H880Q919 1786 956 1756Q1008 1713 1008 1654Q1008 1613 983 1579Q941 1522 864 1522H840Q800 1522 765 1549Q714 1590 714 1654ZM465 904H806Q861 903 848 840L824 722Q821 710 814 698Q792 666 760 666H405L295 238H678Q737 237
724 174L698 56Q695 44 687 32Q664 0 630 0H16Q3 0 -8 6Q-34 23 -24 62L269 1210H198Q190 1210 183 1211Q143 1218 160 1282L192 1408Q196 1426 201 1437T232 1448H974Q1033 1447 1020 1384L994 1266Q991 1254 983 1242Q960 1210 926 1210H543L465 904Z" />
<glyph unicode="&#xcc;" glyph-name="Igrave" horiz-adv-x="552" d="M318 1404Q330 1447 378 1448H548Q561 1448 571 1442Q597 1425 588 1386L246 44Q234 1 186 0H16Q3 0 -7 6Q-33 23 -24 62L318 1404ZM402 1814Q442 1813 464 1780L600 1560Q619 1531 592 1519Q583
1516 574 1516H488Q448 1517 420 1544L184 1778Q164 1796 179 1809Q184 1813 190 1814H402Z" />
<glyph unicode="&#xcd;" glyph-name="Iacute" horiz-adv-x="552" d="M318 1404Q330 1447 378 1448H548Q561 1448 571 1442Q597 1425 588 1386L246 44Q234 1 186 0H16Q3 0 -7 6Q-33 23 -24 62L318 1404ZM754 1814Q766 1814 775 1808Q797 1793 768 1764L548 1544Q520
1517 480 1516H382Q374 1516 368 1518Q347 1526 362 1550L500 1780Q522 1813 562 1814H754Z" />
<glyph unicode="&#xce;" glyph-name="Icircumflex" horiz-adv-x="552" d="M318 1404Q330 1447 378 1448H548Q561 1448 571 1442Q597 1425 588 1386L246 44Q234 1 186 0H16Q3 0 -7 6Q-33 23 -24 62L318 1404ZM529 1659L408 1538Q388 1518 366 1516Q360 1516 352
1516H238Q211 1516 211 1536Q212 1549 226 1562L492 1806Q526 1834 543 1834Q545 1834 548 1834L584 1832Q612 1829 630 1799Q631 1797 632 1796L768 1550Q782 1528 764 1519Q757 1516 748 1516H624Q595 1516 587 1529Q585 1533 582 1538L529 1659Z" />
<glyph unicode="&#xcf;" glyph-name="Idieresis" horiz-adv-x="552" d="M318 1404Q330 1447 378 1448H548Q561 1448 571 1442Q597 1425 588 1386L246 44Q234 1 186 0H16Q3 0 -7 6Q-33 23 -24 62L318 1404ZM214 1652Q214 1692 235 1726Q271 1784 338 1784H360Q392
1784 424 1756Q472 1713 472 1652Q472 1611 451 1577Q414 1520 346 1520H324Q291 1520 261 1546Q214 1587 214 1652ZM534 1652Q534 1691 553 1725Q588 1784 656 1784H680Q712 1784 744 1756Q792 1713 792 1652Q792 1611 771 1577Q734 1520 666 1520H644Q610 1520
581 1545Q534 1585 534 1652Z" />
<glyph unicode="&#xd0;" glyph-name="Eth" horiz-adv-x="924" d="M21 826Q21 826 169 826L262 1191Q239 1188 218 1184Q166 1174 162 1174Q152 1174 143 1178Q119 1188 119 1218Q119 1224 120 1230L140 1388Q146 1417 186 1428L192 1429Q351 1462 526 1462Q659
1462 752 1416Q948 1319 948 1034Q948 855 884 610Q843 455 783 334Q612 -8 320 -8H306Q110 -8 36 6Q23 9 13 13Q-21 27 -21 68Q-21 84 -16 104L108 588H-5Q-12 588 -20 589Q-48 593 -48 627Q-48 641 -43 660L-11 786Q-6 805 -4 811Q2 826 21 826ZM540 1201L444
826H512Q560 826 560 783Q560 774 558 762L532 644Q529 632 521 620Q498 588 464 588H384L298 252Q316 250 368 250Q506 251 616 682Q660 859 660 1001Q660 1012 660 1023Q656 1176 600 1192Q579 1198 540 1201Z" />
<glyph unicode="&#xd1;" glyph-name="Ntilde" horiz-adv-x="1190" d="M824 1818Q831 1816 839 1814Q975 1776 1138 1818Q1155 1822 1168 1816Q1195 1801 1184 1754L1156 1630Q1155 1626 1153 1621Q1143 1596 1104 1584Q926 1533 808 1580Q792 1586 775 1592Q647
1630 512 1586Q485 1578 470 1583Q445 1591 452 1652L462 1742Q469 1791 500 1806Q535 1820 581 1828Q716 1851 824 1818ZM318 1404Q330 1447 378 1448H543Q563 1448 580 1434Q584 1431 588 1426Q593 1419 602 1386L776 620L976 1404Q988 1447 1036 1448H1206Q1218
1448 1229 1442Q1256 1425 1246 1386L904 44Q892 1 844 0H674Q653 0 644 12Q636 24 632 40L450 845L246 44Q234 1 186 0H16Q4 0 -7 6Q-34 23 -24 62L318 1404Z" />
<glyph unicode="&#xd2;" glyph-name="Ograve" horiz-adv-x="900" d="M556 1816Q596 1815 618 1782L754 1562Q773 1533 746 1521Q737 1518 728 1518H642Q602 1519 574 1546L338 1780Q318 1798 333 1811Q338 1815 344 1816H556ZM342 752Q282 524 282 381Q282 228
350 228Q365 228 380 232Q423 246 472 328Q534 436 596 682Q659 939 659 1068T596 1198Q524 1198 472 1112Q409 1008 342 752ZM58 816Q126 1079 251 1251Q407 1464 600 1464Q609 1464 618 1464Q779 1455 856 1364Q932 1274 932 1058Q932 879 864 610Q815 416 739
275Q584 -10 352 -10Q193 -10 109 71Q4 175 4 440Q4 606 58 816Z" />
<glyph unicode="&#xd3;" glyph-name="Oacute" horiz-adv-x="900" d="M912 1814Q924 1814 933 1808Q955 1793 926 1764L706 1544Q678 1517 638 1516H540Q532 1516 526 1518Q505 1526 520 1550L658 1780Q680 1813 720 1814H912ZM342 752Q282 524 282 381Q282 228
350 228Q365 228 380 232Q423 246 472 328Q534 436 596 682Q659 939 659 1068T596 1198Q524 1198 472 1112Q409 1008 342 752ZM58 816Q126 1079 251 1251Q407 1464 600 1464Q609 1464 618 1464Q779 1455 856 1364Q932 1274 932 1058Q932 879 864 610Q815 416 739
275Q584 -10 352 -10Q193 -10 109 71Q4 175 4 440Q4 606 58 816Z" />
<glyph unicode="&#xd4;" glyph-name="Ocircumflex" horiz-adv-x="900" d="M699 1661L578 1540Q558 1520 536 1518Q530 1518 522 1518H408Q381 1518 381 1538Q382 1551 396 1564L662 1808Q696 1836 713 1836Q715 1836 718 1836L754 1834Q782 1831 800 1801Q801
1799 802 1798L938 1552Q952 1530 934 1521Q927 1518 918 1518H794Q765 1518 757 1531Q755 1535 752 1540L699 1661ZM342 752Q282 524 282 381Q282 228 350 228Q365 228 380 232Q423 246 472 328Q534 436 596 682Q659 939 659 1068T596 1198Q524 1198 472 1112Q409
1008 342 752ZM58 816Q126 1079 251 1251Q407 1464 600 1464Q609 1464 618 1464Q779 1455 856 1364Q932 1274 932 1058Q932 879 864 610Q815 416 739 275Q584 -10 352 -10Q193 -10 109 71Q4 175 4 440Q4 606 58 816Z" />
<glyph unicode="&#xd5;" glyph-name="Otilde" horiz-adv-x="900" d="M694 1798Q701 1796 709 1794Q845 1756 1008 1798Q1025 1802 1038 1796Q1065 1781 1054 1734L1026 1610Q1025 1606 1023 1601Q1013 1576 974 1564Q796 1513 678 1560Q662 1566 645 1572Q517
1610 382 1566Q355 1558 340 1563Q315 1571 322 1632L332 1722Q339 1771 370 1786Q405 1800 451 1808Q586 1831 694 1798ZM342 752Q282 524 282 381Q282 228 350 228Q365 228 380 232Q423 246 472 328Q534 436 596 682Q659 939 659 1068T596 1198Q524 1198 472
1112Q409 1008 342 752ZM58 816Q126 1079 251 1251Q407 1464 600 1464Q609 1464 618 1464Q779 1455 856 1364Q932 1274 932 1058Q932 879 864 610Q815 416 739 275Q584 -10 352 -10Q193 -10 109 71Q4 175 4 440Q4 606 58 816Z" />
<glyph unicode="&#xd6;" glyph-name="Odieresis" horiz-adv-x="900" d="M340 1652Q340 1692 363 1726Q403 1784 480 1784H506Q545 1784 582 1754Q634 1711 634 1652Q634 1611 609 1577Q567 1520 490 1520H466Q426 1520 391 1547Q340 1588 340 1652ZM740 1652Q740
1692 763 1726Q803 1784 880 1784H906Q945 1784 982 1754Q1034 1711 1034 1652Q1034 1611 1009 1577Q967 1520 890 1520H866Q826 1520 791 1547Q740 1588 740 1652ZM342 752Q282 524 282 381Q282 228 350 228Q365 228 380 232Q423 246 472 328Q534 436 596 682Q659
939 659 1068T596 1198Q524 1198 472 1112Q409 1008 342 752ZM58 816Q126 1079 251 1251Q407 1464 600 1464Q609 1464 618 1464Q779 1455 856 1364Q932 1274 932 1058Q932 879 864 610Q815 416 739 275Q584 -10 352 -10Q193 -10 109 71Q4 175 4 440Q4 606 58 816Z"
/>
<glyph unicode="&#xd7;" glyph-name="multiply" horiz-adv-x="934" d="M606 607L750 158Q757 137 754 123Q749 104 708 82L594 18Q579 10 565 6Q509 -7 494 62L413 397L202 50L195 42Q188 34 186 32T177 25T164 19T151 19T134 26L-6 116Q-25 127 -34 137Q-51 157
-24 198L295 653L164 1072Q147 1126 163 1148Q167 1153 200 1178L320 1238Q336 1249 353 1246Q387 1239 402 1186L503 834L744 1196Q745 1197 746 1199Q776 1244 812 1222L942 1146Q965 1132 974 1118Q985 1099 958 1062L606 607Z" />
<glyph unicode="&#xd8;" glyph-name="Oslash" horiz-adv-x="900" d="M342 752Q342 752 338 737L656 1124Q645 1196 600 1198Q576 1198 558 1193Q514 1180 472 1112Q409 1009 342 752ZM58 816Q126 1079 251 1251Q407 1464 600 1464Q609 1464 618 1464Q721 1458
798 1414Q831 1394 855 1366L928 1454Q930 1456 932 1459Q963 1493 1000 1468L1086 1410Q1138 1378 1110 1342L930 1124Q932 1083 932 1058Q932 879 864 610Q815 416 739 275Q584 -10 352 -10Q236 -10 164 30Q115 58 84 100L54 64Q11 13 -14 32L-102 102Q-115 113
-122 121Q-144 148 -110 192L8 336Q4 380 4 440Q4 606 58 816ZM284 342Q294 230 350 228Q365 228 380 232Q423 246 472 328Q534 436 596 682L609 735L284 342Z" />
<glyph unicode="&#xd9;" glyph-name="Ugrave" horiz-adv-x="1096" d="M686 1816Q726 1815 748 1782L884 1562Q903 1533 876 1521Q867 1518 858 1518H772Q732 1519 704 1546L468 1780Q448 1798 463 1811Q468 1815 474 1816H686ZM432 -14Q242 -14 160 70Q141 89
126 113Q25 267 112 604L318 1404Q330 1447 378 1448H556Q569 1448 579 1442Q605 1425 596 1386L394 582Q346 391 354 304Q363 204 450 204Q498 204 535 237Q611 307 682 588L890 1404Q902 1447 950 1448H1112Q1125 1448 1135 1442Q1161 1425 1152 1386L956 610Q891
353 812 218Q675 -14 432 -14Z" />
<glyph unicode="&#xda;" glyph-name="Uacute" horiz-adv-x="1096" d="M1004 1814Q1016 1814 1025 1808Q1047 1793 1018 1764L798 1544Q770 1517 730 1516H632Q624 1516 618 1518Q597 1526 612 1550L750 1780Q772 1813 812 1814H1004ZM432 -14Q242 -14 160 70Q141
89 126 113Q25 267 112 604L318 1404Q330 1447 378 1448H556Q569 1448 579 1442Q605 1425 596 1386L394 582Q346 391 354 304Q363 204 450 204Q498 204 535 237Q611 307 682 588L890 1404Q902 1447 950 1448H1112Q1125 1448 1135 1442Q1161 1425 1152 1386L956
610Q891 353 812 218Q675 -14 432 -14Z" />
<glyph unicode="&#xdb;" glyph-name="Ucircumflex" horiz-adv-x="1096" d="M809 1661L688 1540Q668 1520 646 1518Q640 1518 632 1518H518Q491 1518 491 1538Q492 1551 506 1564L772 1808Q806 1836 823 1836Q825 1836 828 1836L864 1834Q892 1831 910 1801Q911
1799 912 1798L1048 1552Q1062 1530 1044 1521Q1037 1518 1028 1518H904Q875 1518 867 1531Q865 1535 862 1540L809 1661ZM432 -14Q242 -14 160 70Q141 89 126 113Q25 267 112 604L318 1404Q330 1447 378 1448H556Q569 1448 579 1442Q605 1425 596 1386L394 582Q346
391 354 304Q363 204 450 204Q498 204 535 237Q611 307 682 588L890 1404Q902 1447 950 1448H1112Q1125 1448 1135 1442Q1161 1425 1152 1386L956 610Q891 353 812 218Q675 -14 432 -14Z" />
<glyph unicode="&#xdc;" glyph-name="Udieresis" horiz-adv-x="1096" d="M458 1678Q458 1718 481 1752Q521 1810 598 1810H624Q663 1810 700 1780Q752 1737 752 1678Q752 1637 727 1603Q685 1546 608 1546H584Q544 1546 509 1573Q458 1614 458 1678ZM858 1678Q858
1718 881 1752Q921 1810 998 1810H1024Q1063 1810 1100 1780Q1152 1737 1152 1678Q1152 1637 1127 1603Q1085 1546 1008 1546H984Q944 1546 909 1573Q858 1614 858 1678ZM432 -14Q242 -14 160 70Q141 89 126 113Q25 267 112 604L318 1404Q330 1447 378 1448H556Q569
1448 579 1442Q605 1425 596 1386L394 582Q346 391 354 304Q363 204 450 204Q498 204 535 237Q611 307 682 588L890 1404Q902 1447 950 1448H1112Q1125 1448 1135 1442Q1161 1425 1152 1386L956 610Q891 353 812 218Q675 -14 432 -14Z" />
<glyph unicode="&#xdd;" glyph-name="Yacute" horiz-adv-x="872" d="M936 1814Q948 1814 957 1808Q979 1793 950 1764L730 1544Q702 1517 662 1516H564Q556 1516 550 1518Q529 1526 544 1550L682 1780Q704 1813 744 1814H936ZM523 895Q720 1194 824 1422Q838 1450
884 1448L1054 1440Q1066 1439 1076 1432Q1103 1411 1078 1368Q1064 1344 1049 1319Q827 939 567 590L428 44Q416 1 368 0H198Q185 0 175 6Q149 23 158 62L298 614Q298 704 282 862Q249 1183 204 1358Q194 1385 201 1409Q212 1444 248 1446L408 1454Q425 1455 435
1453Q459 1448 466 1406Q511 1141 523 895Z" />
<glyph unicode="&#xde;" glyph-name="Thorn" horiz-adv-x="940" d="M318 1404Q330 1447 378 1448H548Q561 1448 571 1442Q597 1425 588 1386L569 1310H636Q722 1310 789 1284Q940 1224 940 1050Q940 931 893 792Q842 641 780 586Q749 555 733 542Q617 448 348
445L246 44Q234 1 186 0H16Q3 0 -7 6Q-33 23 -24 62L318 1404ZM401 653L478 658Q487 659 497 660Q590 674 640 766Q645 782 652 805Q688 941 688 1026Q688 1037 679 1048Q659 1072 628 1072Q601 1073 509 1075L401 653Z" />
<glyph unicode="&#xdf;" glyph-name="germandbls" horiz-adv-x="972" d="M138 0Q138 0 -14 0Q-24 0 -34 3Q-66 13 -58 46L222 1100Q261 1248 348 1361Q489 1544 692 1544Q816 1544 903 1461Q996 1373 1000 1241Q1006 1075 866 932Q856 920 834 895Q819 878 812
869Q748 793 748 742Q748 724 754 705Q765 674 816 619Q840 593 852 579Q932 482 932 354Q932 338 930 321Q917 189 823 89Q708 -32 538 -32Q505 -32 474 -26Q291 11 294 258Q294 265 295 272Q302 318 334 328L492 378Q508 383 523 382Q555 379 554 350Q554 339
553 326Q552 176 592 176Q607 178 620 195Q648 237 648 328Q648 385 626 425Q608 456 556 498Q532 517 520 528Q460 585 460 678Q461 842 664 1060Q703 1102 726 1143Q754 1195 753 1238Q753 1326 666 1326Q620 1326 571 1276Q509 1214 476 1092L196 44Q185 2 138
0Z" />
<glyph unicode="&#xe0;" glyph-name="agrave" horiz-adv-x="860" d="M504 1446Q544 1445 566 1412L702 1192Q721 1163 694 1151Q685 1148 676 1148H590Q550 1149 522 1176L286 1410Q266 1428 281 1441Q286 1445 292 1446H504ZM642 138H643L639 147L620 124Q584
81 558 53Q500 -6 454 -6H440Q406 -4 340 60Q263 136 263 228Q263 406 387 739Q468 959 554 1024Q622 1075 714 1076Q800 1076 878 1021L882 1038Q888 1062 895 1070Q910 1086 930 1086H1058Q1129 1086 1114 1020L894 285Q922 313 938 340Q958 372 988 354L1076
296Q1105 274 1090 250Q1063 211 1033 176Q883 3 730 -10Q707 -12 694 12L642 138ZM836 854Q832 855 828 857Q791 868 766 867Q743 867 730 858Q695 831 639 690Q567 509 538 358Q532 324 531 313Q531 298 543 298Q550 298 556 300Q593 317 654 418Q760 601 826
824L836 854Z" />
<glyph unicode="&#xe1;" glyph-name="aacute" horiz-adv-x="860" d="M876 1452Q888 1452 897 1446Q919 1431 890 1402L670 1182Q642 1155 602 1154H504Q496 1154 490 1156Q469 1164 484 1188L622 1418Q644 1451 684 1452H876ZM642 138H643L639 147L620 124Q584
81 558 53Q500 -6 454 -6H440Q406 -4 340 60Q263 136 263 228Q263 406 387 739Q468 959 554 1024Q622 1075 714 1076Q800 1076 878 1021L882 1038Q888 1062 895 1070Q910 1086 930 1086H1058Q1129 1086 1114 1020L894 285Q922 313 938 340Q958 372 988 354L1076
296Q1105 274 1090 250Q1063 211 1033 176Q883 3 730 -10Q707 -12 694 12L642 138ZM836 854Q832 855 828 857Q791 868 766 867Q743 867 730 858Q695 831 639 690Q567 509 538 358Q532 324 531 313Q531 298 543 298Q550 298 556 300Q593 317 654 418Q760 601 826
824L836 854Z" />
<glyph unicode="&#xe2;" glyph-name="acircumflex" horiz-adv-x="860" d="M631 1317L510 1196Q490 1176 468 1174Q462 1174 454 1174H340Q313 1174 313 1194Q314 1207 328 1220L594 1464Q628 1492 645 1492Q647 1492 650 1492L686 1490Q714 1487 732 1457Q733
1455 734 1454L870 1208Q884 1186 866 1177Q859 1174 850 1174H726Q697 1174 689 1187Q687 1191 684 1196L631 1317ZM642 138H643L639 147L620 124Q584 81 558 53Q500 -6 454 -6H440Q406 -4 340 60Q263 136 263 228Q263 406 387 739Q468 959 554 1024Q622 1075
714 1076Q800 1076 878 1021L882 1038Q888 1062 895 1070Q910 1086 930 1086H1058Q1129 1086 1114 1020L894 285Q922 313 938 340Q958 372 988 354L1076 296Q1105 274 1090 250Q1063 211 1033 176Q883 3 730 -10Q707 -12 694 12L642 138ZM836 854Q832 855 828 857Q791
868 766 867Q743 867 730 858Q695 831 639 690Q567 509 538 358Q532 324 531 313Q531 298 543 298Q550 298 556 300Q593 317 654 418Q760 601 826 824L836 854Z" />
<glyph unicode="&#xe3;" glyph-name="atilde" horiz-adv-x="860" d="M610 1438Q724 1398 768 1398Q779 1398 789 1399Q824 1402 890 1432Q906 1439 919 1431Q943 1414 932 1370L904 1274Q895 1239 858 1214Q851 1210 845 1206Q802 1180 736 1180Q730 1180 723
1181Q656 1186 596 1210Q588 1214 572 1221Q491 1258 454 1258Q391 1258 340 1228Q318 1215 303 1214Q272 1213 280 1280L286 1344Q293 1398 320 1418Q396 1469 482 1470Q498 1470 517 1466Q535 1463 610 1438ZM642 138H643L639 147L620 124Q584 81 558 53Q500
-6 454 -6H440Q406 -4 340 60Q263 136 263 228Q263 406 387 739Q468 959 554 1024Q622 1075 714 1076Q800 1076 878 1021L882 1038Q888 1062 895 1070Q910 1086 930 1086H1058Q1129 1086 1114 1020L894 285Q922 313 938 340Q958 372 988 354L1076 296Q1105 274
1090 250Q1063 211 1033 176Q883 3 730 -10Q707 -12 694 12L642 138ZM836 854Q832 855 828 857Q791 868 766 867Q743 867 730 858Q695 831 639 690Q567 509 538 358Q532 324 531 313Q531 298 543 298Q550 298 556 300Q593 317 654 418Q760 601 826 824L836 854Z"
/>
<glyph unicode="&#xe4;" glyph-name="adieresis" horiz-adv-x="860" d="M262 1336Q262 1376 285 1410Q325 1468 402 1468H428Q467 1468 504 1438Q556 1395 556 1336Q556 1295 531 1261Q489 1204 412 1204H388Q348 1204 313 1231Q262 1272 262 1336ZM662 1336Q662
1376 685 1410Q725 1468 802 1468H828Q867 1468 904 1438Q956 1395 956 1336Q956 1295 931 1261Q889 1204 812 1204H788Q748 1204 713 1231Q662 1272 662 1336ZM642 138H643L639 147L620 124Q584 81 558 53Q500 -6 454 -6H440Q406 -4 340 60Q263 136 263 228Q263
406 387 739Q468 959 554 1024Q622 1075 714 1076Q800 1076 878 1021L882 1038Q888 1062 895 1070Q910 1086 930 1086H1058Q1129 1086 1114 1020L894 285Q922 313 938 340Q958 372 988 354L1076 296Q1105 274 1090 250Q1063 211 1033 176Q883 3 730 -10Q707 -12
694 12L642 138ZM836 854Q832 855 828 857Q791 868 766 867Q743 867 730 858Q695 831 639 690Q567 509 538 358Q532 324 531 313Q531 298 543 298Q550 298 556 300Q593 317 654 418Q760 601 826 824L836 854Z" />
<glyph unicode="&#xe5;" glyph-name="aring" horiz-adv-x="860" d="M300 1492Q315 1615 414 1705Q517 1798 650 1798Q778 1796 864 1707Q945 1617 930 1492Q913 1369 814 1280Q709 1186 576 1186Q448 1188 364 1277Q284 1367 300 1492ZM518 1516Q502 1469 510
1424Q522 1360 574 1344Q607 1335 642 1352Q699 1380 724 1450Q740 1498 730 1544Q715 1606 664 1622Q631 1632 596 1615Q540 1586 518 1516ZM642 138H643L639 147L620 124Q584 81 558 53Q500 -6 454 -6H440Q406 -4 340 60Q263 136 263 228Q263 406 387 739Q468
959 554 1024Q622 1075 714 1076Q800 1076 878 1021L882 1038Q888 1062 895 1070Q910 1086 930 1086H1058Q1129 1086 1114 1020L894 285Q922 313 938 340Q958 372 988 354L1076 296Q1105 274 1090 250Q1063 211 1033 176Q883 3 730 -10Q707 -12 694 12L642 138ZM836
854Q832 855 828 857Q791 868 766 867Q743 867 730 858Q695 831 639 690Q567 509 538 358Q532 324 531 313Q531 298 543 298Q550 298 556 300Q593 317 654 418Q760 601 826 824L836 854Z" />
<glyph unicode="&#xe6;" glyph-name="ae" horiz-adv-x="990" d="M611 551Q667 578 712 629Q788 719 788 824Q788 842 786 854Q782 878 762 878Q751 878 732 857Q695 817 680 776Q643 683 611 551ZM563 337Q563 337 560 322Q546 256 558 234Q564 224 594 214Q596
215 600 216Q634 229 728 328Q729 329 731 331Q749 344 768 332L866 272Q870 269 875 265Q893 245 884 228Q880 220 873 210Q825 139 716 52Q592 -46 546 -38Q410 -2 358 63Q335 37 307 18Q209 -50 110 -8Q108 -7 104 -6Q-30 55 -30 198Q-26 348 113 497Q239 624
407 679L414 714Q427 774 419 801Q412 825 380 836Q378 835 374 834Q340 821 246 722Q245 721 243 719Q225 706 206 718L108 778Q104 781 99 785Q81 805 90 822Q94 830 101 840Q149 911 258 998Q382 1096 428 1088Q564 1052 616 988Q622 994 629 1001Q743 1110
864 1058Q866 1057 870 1056Q1004 995 1004 852Q1004 829 1000 805Q978 658 847 520Q720 386 563 337ZM357 464Q323 448 294 426Q186 344 186 226Q186 208 188 196Q192 172 212 172Q223 173 242 189Q280 224 294 260Q327 344 357 464Z" />
<glyph unicode="&#xe7;" glyph-name="ccedilla" horiz-adv-x="796" d="M208 -66Q208 -66 334 -106Q335 -106 337 -107Q368 -117 356 -166Q335 -259 255 -324Q147 -411 -6 -404Q-33 -402 -42 -380L-66 -306Q-79 -260 -40 -258Q41 -258 96 -217Q158 -170 158 -98Q158
-83 166 -73Q181 -56 208 -66ZM604 1058Q681 1026 714 990Q720 983 725 975Q742 943 722 920L630 822Q628 820 622 814Q598 793 572 808Q492 855 462 855Q462 855 456 854Q422 844 364 728Q286 574 260 454Q230 321 230 262Q230 207 246 202L362 302Q392 328 432
302L516 246Q526 239 532 227Q542 202 528 182Q492 127 414 65Q373 32 318 -3Q291 -21 258 -22Q208 -22 121 22Q32 68 9 126Q-17 193 -17 281Q-17 412 42 587Q97 754 164 854Q322 1089 470 1089Q528 1089 604 1058Z" />
<glyph unicode="&#xe8;" glyph-name="egrave" horiz-adv-x="688" d="M434 1452Q474 1451 496 1418L632 1198Q651 1169 624 1157Q615 1154 606 1154H520Q480 1155 452 1182L216 1416Q196 1434 211 1447Q216 1451 222 1452H434ZM316 522Q374 559 421 635Q486 740
486 834Q486 852 484 864Q480 888 460 888Q455 888 449 884Q422 864 396 794Q357 694 316 522ZM269 304Q263 273 263 257Q263 236 290 224Q290 224 308 230Q341 244 411 324Q420 333 429 341Q444 356 466 342L564 282Q578 274 582 261Q587 246 582 238Q575 226
565 212Q514 142 414 62Q300 -28 255 -28H244Q50 22 26 136Q20 164 20 229Q20 400 99 643Q181 901 264 978Q292 1005 323 1026Q407 1084 484 1084Q525 1084 568 1066Q702 1005 702 862Q702 832 695 798Q667 651 540 504Q414 359 269 304Z" />
<glyph unicode="&#xe9;" glyph-name="eacute" horiz-adv-x="688" d="M858 1446Q870 1446 879 1440Q901 1425 872 1396L652 1176Q624 1149 584 1148H486Q478 1148 472 1150Q451 1158 466 1182L604 1412Q626 1445 666 1446H858ZM316 522Q374 559 421 635Q486 740
486 834Q486 852 484 864Q480 888 460 888Q455 888 449 884Q422 864 396 794Q357 694 316 522ZM269 304Q263 273 263 257Q263 236 290 224Q290 224 308 230Q341 244 411 324Q420 333 429 341Q444 356 466 342L564 282Q578 274 582 261Q587 246 582 238Q575 226
565 212Q514 142 414 62Q300 -28 255 -28H244Q50 22 26 136Q20 164 20 229Q20 400 99 643Q181 901 264 978Q292 1005 323 1026Q407 1084 484 1084Q525 1084 568 1066Q702 1005 702 862Q702 832 695 798Q667 651 540 504Q414 359 269 304Z" />
<glyph unicode="&#xea;" glyph-name="ecircumflex" horiz-adv-x="688" d="M587 1293L466 1172Q446 1152 424 1150Q418 1150 410 1150H296Q269 1150 269 1170Q270 1183 284 1196L550 1440Q584 1468 601 1468Q603 1468 606 1468L642 1466Q670 1463 688 1433Q689
1431 690 1430L826 1184Q840 1162 822 1153Q815 1150 806 1150H682Q653 1150 645 1163Q643 1167 640 1172L587 1293ZM316 522Q374 559 421 635Q486 740 486 834Q486 852 484 864Q480 888 460 888Q455 888 449 884Q422 864 396 794Q357 694 316 522ZM269 304Q263
273 263 257Q263 236 290 224Q290 224 308 230Q341 244 411 324Q420 333 429 341Q444 356 466 342L564 282Q578 274 582 261Q587 246 582 238Q575 226 565 212Q514 142 414 62Q300 -28 255 -28H244Q50 22 26 136Q20 164 20 229Q20 400 99 643Q181 901 264 978Q292
1005 323 1026Q407 1084 484 1084Q525 1084 568 1066Q702 1005 702 862Q702 832 695 798Q667 651 540 504Q414 359 269 304Z" />
<glyph unicode="&#xeb;" glyph-name="edieresis" horiz-adv-x="688" d="M316 1330Q316 1370 337 1404Q373 1462 440 1462H462Q494 1462 526 1434Q574 1391 574 1330Q574 1289 553 1255Q516 1198 448 1198H426Q393 1198 363 1224Q316 1265 316 1330ZM636 1330Q636
1369 655 1403Q690 1462 758 1462H782Q814 1462 846 1434Q894 1391 894 1330Q894 1289 873 1255Q836 1198 768 1198H746Q712 1198 683 1223Q636 1263 636 1330ZM316 522Q374 559 421 635Q486 740 486 834Q486 852 484 864Q480 888 460 888Q455 888 449 884Q422
864 396 794Q357 694 316 522ZM269 304Q263 273 263 257Q263 236 290 224Q290 224 308 230Q341 244 411 324Q420 333 429 341Q444 356 466 342L564 282Q578 274 582 261Q587 246 582 238Q575 226 565 212Q514 142 414 62Q300 -28 255 -28H244Q50 22 26 136Q20 164
20 229Q20 400 99 643Q181 901 264 978Q292 1005 323 1026Q407 1084 484 1084Q525 1084 568 1066Q702 1005 702 862Q702 832 695 798Q667 651 540 504Q414 359 269 304Z" />
<glyph unicode="&#xec;" glyph-name="igrave" horiz-adv-x="528" d="M378 1448Q418 1447 440 1414L576 1194Q595 1165 568 1153Q559 1150 550 1150H464Q424 1151 396 1178L160 1412Q140 1430 155 1443Q160 1447 166 1448H378ZM522 1034Q522 1034 262 44Q250 1
202 0H40Q-13 1 -4 46L256 1036Q268 1079 316 1080H478Q531 1079 522 1034Z" />
<glyph unicode="&#xed;" glyph-name="iacute" horiz-adv-x="528" d="M714 1448Q726 1448 735 1442Q757 1427 728 1398L508 1178Q480 1151 440 1150H342Q334 1150 328 1152Q307 1160 322 1184L460 1414Q482 1447 522 1448H714ZM522 1034Q522 1034 262 44Q250 1
202 0H40Q-13 1 -4 46L256 1036Q268 1079 316 1080H478Q531 1079 522 1034Z" />
<glyph unicode="&#xee;" glyph-name="icircumflex" horiz-adv-x="528" d="M705 1297L584 1176Q564 1156 542 1154Q536 1154 528 1154H414Q387 1154 387 1174Q388 1187 402 1200L668 1444Q702 1472 719 1472Q721 1472 724 1472L760 1470Q788 1467 806 1437Q807
1435 808 1434L944 1188Q958 1166 940 1157Q933 1154 924 1154H800Q771 1154 763 1167Q761 1171 758 1176L705 1297ZM522 1034Q522 1034 262 44Q250 1 202 0H40Q-13 1 -4 46L256 1036Q268 1079 316 1080H478Q531 1079 522 1034Z" />
<glyph unicode="&#xef;" glyph-name="idieresis" horiz-adv-x="528" d="M424 1336Q424 1376 445 1410Q481 1468 548 1468H570Q602 1468 634 1440Q682 1397 682 1336Q682 1295 661 1261Q624 1204 556 1204H534Q501 1204 471 1230Q424 1271 424 1336ZM744 1336Q744
1375 763 1409Q798 1468 866 1468H890Q922 1468 954 1440Q1002 1397 1002 1336Q1002 1295 981 1261Q944 1204 876 1204H854Q820 1204 791 1229Q744 1269 744 1336ZM522 1034Q522 1034 262 44Q250 1 202 0H40Q-13 1 -4 46L256 1036Q268 1079 316 1080H478Q531 1079
522 1034Z" />
<glyph unicode="&#xf0;" glyph-name="eth" horiz-adv-x="752" d="M298 1342Q298 1342 454 1374Q442 1410 418 1472Q414 1483 415 1493Q419 1520 454 1520H640Q646 1520 652 1519Q690 1512 698 1470L708 1426L796 1444Q830 1449 848 1420L898 1326Q903 1317 903
1306Q905 1270 862 1262L744 1237Q757 1163 764 1092Q783 916 765 739Q735 432 616 245L606 228Q587 196 566 166Q434 -16 286 -16Q256 -16 235 -14Q152 -5 88 62Q75 76 63 94Q0 191 0 350Q0 568 120 822Q146 882 183 932Q305 1098 490 1098Q508 1098 523 1095L522
1102Q517 1130 505 1188L402 1166Q354 1156 330 1198L288 1294Q266 1331 298 1342ZM498 566Q513 616 520 699Q533 864 472 864Q452 864 433 853Q386 825 336 698Q335 696 334 693Q246 468 246 350Q246 295 251 271Q260 232 300 224Q318 227 333 233Q370 250 410
324Q418 339 426 356Q476 464 498 566Z" />
<glyph unicode="&#xf1;" glyph-name="ntilde" horiz-adv-x="852" d="M626 1438Q740 1398 784 1398Q795 1398 805 1399Q840 1402 906 1432Q922 1439 935 1431Q959 1414 948 1370L920 1274Q911 1239 874 1214Q867 1210 861 1206Q818 1180 752 1180Q746 1180 739
1181Q672 1186 612 1210Q604 1214 588 1221Q507 1258 470 1258Q407 1258 356 1228Q334 1215 319 1214Q288 1213 296 1280L302 1344Q309 1398 336 1418Q412 1469 498 1470Q514 1470 533 1466Q551 1463 626 1438ZM392 785L538 988Q545 998 556 1012Q614 1080 688
1080H786Q803 1080 819 1076Q897 1055 870 952L630 42Q619 1 576 0H421Q404 0 396 9Q386 20 394 48L518 504Q518 505 528 537Q563 656 540 656Q530 656 516 638Q515 637 474 570Q422 484 328 300Q212 72 188 38Q159 1 126 0H4Q-4 0 -12 5Q-36 19 -28 52L232 1024Q247
1078 292 1080H420Q440 1080 453 1076Q486 1065 470 1018L392 785Z" />
<glyph unicode="&#xf2;" glyph-name="ograve" horiz-adv-x="786" d="M432 1702Q472 1701 494 1668L630 1448Q649 1419 622 1407Q613 1404 604 1404H518Q478 1405 450 1432L214 1666Q194 1684 209 1697Q214 1701 220 1702H432ZM508 566Q532 681 532 752Q532 864
482 864Q452 864 429 842Q383 794 344 693Q256 469 256 350Q256 224 310 224Q341 225 366 248Q405 285 436 356Q489 476 508 566ZM130 822Q156 882 193 932Q248 1007 316 1048Q398 1098 500 1098Q521 1098 540 1096Q667 1080 726 964Q739 940 747 908Q760 857 760
726Q760 680 754 630Q728 416 616 228Q597 196 576 166Q444 -16 296 -16Q266 -16 245 -14Q138 -3 73 94Q10 191 10 350Q10 568 130 822Z" />
<glyph unicode="&#xf3;" glyph-name="oacute" horiz-adv-x="786" d="M814 1446Q826 1446 835 1440Q857 1425 828 1396L608 1176Q580 1149 540 1148H442Q434 1148 428 1150Q407 1158 422 1182L560 1412Q582 1445 622 1446H814ZM508 566Q532 681 532 752Q532 864
482 864Q452 864 429 842Q383 794 344 693Q256 469 256 350Q256 224 310 224Q341 225 366 248Q405 285 436 356Q489 476 508 566ZM130 822Q156 882 193 932Q248 1007 316 1048Q398 1098 500 1098Q521 1098 540 1096Q667 1080 726 964Q739 940 747 908Q760 857 760
726Q760 680 754 630Q728 416 616 228Q597 196 576 166Q444 -16 296 -16Q266 -16 245 -14Q138 -3 73 94Q10 191 10 350Q10 568 130 822Z" />
<glyph unicode="&#xf4;" glyph-name="ocircumflex" horiz-adv-x="786" d="M577 1323L456 1202Q436 1182 414 1180Q408 1180 400 1180H286Q259 1180 259 1200Q260 1213 274 1226L540 1470Q574 1498 591 1498Q593 1498 596 1498L632 1496Q660 1493 678 1463Q679
1461 680 1460L816 1214Q830 1192 812 1183Q805 1180 796 1180H672Q643 1180 635 1193Q633 1197 630 1202L577 1323ZM508 566Q532 681 532 752Q532 864 482 864Q452 864 429 842Q383 794 344 693Q256 469 256 350Q256 224 310 224Q341 225 366 248Q405 285 436
356Q489 476 508 566ZM130 822Q156 882 193 932Q248 1007 316 1048Q398 1098 500 1098Q521 1098 540 1096Q667 1080 726 964Q739 940 747 908Q760 857 760 726Q760 680 754 630Q728 416 616 228Q597 196 576 166Q444 -16 296 -16Q266 -16 245 -14Q138 -3 73 94Q10
191 10 350Q10 568 130 822Z" />
<glyph unicode="&#xf5;" glyph-name="otilde" horiz-adv-x="786" d="M842 1438Q956 1398 1000 1398Q1011 1398 1021 1399Q1056 1402 1122 1432Q1138 1439 1151 1431Q1175 1414 1164 1370L1136 1274Q1127 1239 1090 1214Q1083 1210 1077 1206Q1034 1180 968 1180Q962
1180 955 1181Q888 1186 828 1210Q820 1214 804 1221Q723 1258 686 1258Q623 1258 572 1228Q550 1215 535 1214Q504 1213 512 1280L518 1344Q525 1398 552 1418Q628 1469 714 1470Q730 1470 749 1466Q767 1463 842 1438ZM508 566Q532 681 532 752Q532 864 482 864Q452
864 429 842Q383 794 344 693Q256 469 256 350Q256 224 310 224Q341 225 366 248Q405 285 436 356Q489 476 508 566ZM130 822Q156 882 193 932Q248 1007 316 1048Q398 1098 500 1098Q521 1098 540 1096Q667 1080 726 964Q739 940 747 908Q760 857 760 726Q760 680
754 630Q728 416 616 228Q597 196 576 166Q444 -16 296 -16Q266 -16 245 -14Q138 -3 73 94Q10 191 10 350Q10 568 130 822Z" />
<glyph unicode="&#xf6;" glyph-name="odieresis" horiz-adv-x="786" d="M282 1342Q282 1382 305 1416Q345 1474 422 1474H448Q487 1474 524 1444Q576 1401 576 1342Q576 1301 551 1267Q509 1210 432 1210H408Q368 1210 333 1237Q282 1278 282 1342ZM682 1342Q682
1382 705 1416Q745 1474 822 1474H848Q887 1474 924 1444Q976 1401 976 1342Q976 1301 951 1267Q909 1210 832 1210H808Q768 1210 733 1237Q682 1278 682 1342ZM508 566Q532 681 532 752Q532 864 482 864Q452 864 429 842Q383 794 344 693Q256 469 256 350Q256
224 310 224Q341 225 366 248Q405 285 436 356Q489 476 508 566ZM130 822Q156 882 193 932Q248 1007 316 1048Q398 1098 500 1098Q521 1098 540 1096Q667 1080 726 964Q739 940 747 908Q760 857 760 726Q760 680 754 630Q728 416 616 228Q597 196 576 166Q444 -16
296 -16Q266 -16 245 -14Q138 -3 73 94Q10 191 10 350Q10 568 130 822Z" />
<glyph unicode="&#xf7;" glyph-name="divide" horiz-adv-x="1040" d="M42 806Q42 806 1024 806Q1083 805 1070 742L1044 624Q1041 612 1033 600Q1010 568 976 568H16Q8 568 1 569Q-39 576 -22 640L10 766Q13 781 17 791Q23 806 42 806ZM444 1102Q444 1142 467
1176Q507 1234 584 1234H610Q649 1234 686 1204Q738 1161 738 1102Q738 1061 713 1027Q671 970 594 970H570Q530 970 495 997Q444 1038 444 1102ZM242 234Q242 274 265 308Q305 366 382 366H408Q447 366 484 336Q536 293 536 234Q536 193 511 159Q469 102 392 102H368Q328
102 293 129Q242 170 242 234Z" />
<glyph unicode="&#xf8;" glyph-name="oslash" horiz-adv-x="752" d="M120 822Q146 882 183 932Q305 1098 490 1098Q506 1098 521 1097Q646 1088 708 978L826 1086Q863 1119 898 1090L976 1020Q1021 978 990 950L750 731V726Q750 680 744 630Q718 416 606 228Q587
196 566 166Q434 -16 286 -16Q256 -16 235 -14Q152 -5 88 62Q74 77 58 102L-36 16Q-84 -28 -108 -6L-184 76Q-196 90 -202 99Q-219 129 -180 166L0 331V350Q0 568 120 822ZM247 300Q248 285 251 273Q260 232 300 224Q318 227 333 233Q370 250 410 324Q453 405 485
516L247 300ZM520 787Q513 862 472 864Q452 864 433 853Q386 825 336 698Q306 622 291 577L520 787Z" />
<glyph unicode="&#xf9;" glyph-name="ugrave" horiz-adv-x="812" d="M508 1452Q548 1451 570 1418L706 1198Q725 1169 698 1157Q689 1154 680 1154H594Q554 1155 526 1182L290 1416Q270 1434 285 1447Q290 1451 296 1452H508ZM453 298L336 132Q312 95 289 68Q229
-2 154 -2H142Q98 -2 65 19Q-15 73 12 232Q25 306 90 547Q200 953 236 1052Q246 1079 286 1080H442Q461 1080 467 1062Q472 1046 460 1008Q354 676 310 504Q301 468 301 448Q301 426 313 426Q334 426 378 506Q548 812 650 1034Q672 1078 716 1080H838Q846 1080
854 1075Q878 1061 870 1028L610 54Q596 2 550 0H426Q365 0 388 72L453 298Z" />
<glyph unicode="&#xfa;" glyph-name="uacute" horiz-adv-x="812" d="M846 1452Q858 1452 867 1446Q889 1431 860 1402L640 1182Q612 1155 572 1154H474Q466 1154 460 1156Q439 1164 454 1188L592 1418Q614 1451 654 1452H846ZM453 298L336 132Q312 95 289 68Q229
-2 154 -2H142Q98 -2 65 19Q-15 73 12 232Q25 306 90 547Q200 953 236 1052Q246 1079 286 1080H442Q461 1080 467 1062Q472 1046 460 1008Q354 676 310 504Q301 468 301 448Q301 426 313 426Q334 426 378 506Q548 812 650 1034Q672 1078 716 1080H838Q846 1080
854 1075Q878 1061 870 1028L610 54Q596 2 550 0H426Q365 0 388 72L453 298Z" />
<glyph unicode="&#xfb;" glyph-name="ucircumflex" horiz-adv-x="812" d="M639 1309L518 1188Q498 1168 476 1166Q470 1166 462 1166H348Q321 1166 321 1186Q322 1199 336 1212L602 1456Q636 1484 653 1484Q655 1484 658 1484L694 1482Q722 1479 740 1449Q741
1447 742 1446L878 1200Q892 1178 874 1169Q867 1166 858 1166H734Q705 1166 697 1179Q695 1183 692 1188L639 1309ZM453 298L336 132Q312 95 289 68Q229 -2 154 -2H142Q98 -2 65 19Q-15 73 12 232Q25 306 90 547Q200 953 236 1052Q246 1079 286 1080H442Q461 1080
467 1062Q472 1046 460 1008Q354 676 310 504Q301 468 301 448Q301 426 313 426Q334 426 378 506Q548 812 650 1034Q672 1078 716 1080H838Q846 1080 854 1075Q878 1061 870 1028L610 54Q596 2 550 0H426Q365 0 388 72L453 298Z" />
<glyph unicode="&#xfc;" glyph-name="udieresis" horiz-adv-x="812" d="M264 1342Q264 1382 287 1416Q327 1474 404 1474H430Q469 1474 506 1444Q558 1401 558 1342Q558 1301 533 1267Q491 1210 414 1210H390Q350 1210 315 1237Q264 1278 264 1342ZM664 1342Q664
1382 687 1416Q727 1474 804 1474H830Q869 1474 906 1444Q958 1401 958 1342Q958 1301 933 1267Q891 1210 814 1210H790Q750 1210 715 1237Q664 1278 664 1342ZM453 298L336 132Q312 95 289 68Q229 -2 154 -2H142Q98 -2 65 19Q-15 73 12 232Q25 306 90 547Q200
953 236 1052Q246 1079 286 1080H442Q461 1080 467 1062Q472 1046 460 1008Q354 676 310 504Q301 468 301 448Q301 426 313 426Q334 426 378 506Q548 812 650 1034Q672 1078 716 1080H838Q846 1080 854 1075Q878 1061 870 1028L610 54Q596 2 550 0H426Q365 0 388
72L453 298Z" />
<glyph unicode="&#xfd;" glyph-name="yacute" horiz-adv-x="794" d="M846 1448Q858 1448 867 1442Q889 1427 860 1398L640 1178Q612 1151 572 1150H474Q466 1150 460 1152Q439 1160 454 1184L592 1414Q614 1447 654 1448H846ZM425 241L350 122Q306 51 268 32Q247
22 192 22H180Q111 22 62 82Q54 92 45 108Q0 193 24 294Q33 330 62 438Q202 956 236 1052Q246 1079 286 1080H442Q481 1080 464 1022Q462 1016 460 1008Q328 574 310 504Q302 469 302 450Q302 427 314 426Q335 426 378 506Q566 850 650 1034Q672 1078 716 1080H808H832Q888
1077 874 1026L601 48Q539 -176 508 -236Q480 -288 424 -327Q349 -380 292 -380Q246 -380 188 -346L-16 -230Q-31 -222 -38 -213Q-56 -187 -32 -158L32 -72Q32 -72 36 -68Q65 -38 98 -56L272 -150Q279 -154 286 -154Q310 -154 326 -104L425 241Z" />
<glyph unicode="&#xfe;" glyph-name="thorn" horiz-adv-x="818" d="M570 1472Q570 1472 420 887L468 944Q505 989 530 1015Q588 1074 634 1074H648Q682 1072 748 1008Q834 921 824 814Q824 811 823 806Q798 577 701 329Q613 105 534 44Q466 -7 374 -8Q285 -8 206
50L102 -356Q90 -399 42 -400H-96Q-109 -400 -120 -397Q-159 -384 -148 -336L316 1474Q328 1517 376 1518H526Q579 1517 570 1472ZM252 214Q256 213 260 211Q331 190 358 210Q393 237 449 378Q523 563 550 710Q556 742 556 755Q555 770 540 770Q536 770 532 768Q495
751 434 650Q328 467 262 244L252 214Z" />
<glyph unicode="&#xff;" glyph-name="ydieresis" horiz-adv-x="794" d="M300 1578Q300 1618 321 1652Q357 1710 424 1710H446Q478 1710 510 1682Q558 1639 558 1578Q558 1537 537 1503Q500 1446 432 1446H410Q377 1446 347 1472Q300 1513 300 1578ZM620 1578Q620
1617 639 1651Q674 1710 742 1710H766Q798 1710 830 1682Q878 1639 878 1578Q878 1537 857 1503Q820 1446 752 1446H730Q696 1446 667 1471Q620 1511 620 1578ZM425 241L350 122Q306 51 268 32Q247 22 192 22H180Q111 22 62 82Q54 92 45 108Q0 193 24 294Q33 330
62 438Q202 956 236 1052Q246 1079 286 1080H442Q481 1080 464 1022Q462 1016 460 1008Q328 574 310 504Q302 469 302 450Q302 427 314 426Q335 426 378 506Q566 850 650 1034Q672 1078 716 1080H808H832Q888 1077 874 1026L601 48Q539 -176 508 -236Q480 -288
424 -327Q349 -380 292 -380Q246 -380 188 -346L-16 -230Q-31 -222 -38 -213Q-56 -187 -32 -158L32 -72Q32 -72 36 -68Q65 -38 98 -56L272 -150Q279 -154 286 -154Q310 -154 326 -104L425 241Z" />
<glyph unicode="&#x2013;" glyph-name="endash" horiz-adv-x="1350" d="M172 762Q172 762 1154 762Q1213 761 1200 698L1174 580Q1171 568 1163 556Q1140 524 1106 524H146Q138 524 131 525Q91 532 108 596L140 722Q143 737 147 747Q153 762 172 762Z" />
<glyph unicode="&#x2014;" glyph-name="emdash" horiz-adv-x="1804" d="M172 762Q172 762 1732 762Q1791 761 1778 698L1752 580Q1749 568 1741 556Q1718 524 1684 524H146Q138 524 131 525Q91 532 108 596L140 722Q143 737 147 747Q153 762 172 762Z" />
<glyph unicode="&#x2018;" glyph-name="quoteleft" horiz-adv-x="454" d="M94 1062Q94 1163 141 1283Q198 1426 292 1544L310 1566Q328 1588 355 1609T402 1630Q442 1628 446 1588Q446 1536 426 1455Q396 1333 392 1308Q372 1169 372 1096Q372 1086 368 1079Q360
1067 322 1058L142 1020Q137 1019 131 1019Q94 1019 94 1062Z" />
<glyph unicode="&#x2019;" glyph-name="quoteright" horiz-adv-x="412" d="M512 1614Q512 1513 465 1393Q408 1250 314 1132L296 1110Q278 1088 251 1067T204 1046Q164 1048 160 1088Q160 1140 180 1221Q210 1343 214 1368T220 1427Q230 1554 234 1580Q235 1616
284 1618L464 1656Q510 1655 512 1614Z" />
<glyph unicode="&#x201a;" glyph-name="quotesinglbase" horiz-adv-x="640" d="M282 214Q282 113 235 -7Q178 -150 84 -268L66 -290Q48 -312 21 -333T-26 -354Q-66 -352 -70 -312Q-70 -260 -50 -179Q-20 -57 -16 -32T-10 27Q0 154 4 180Q5 216 54 218L234 256Q280
255 282 214Z" />
<glyph unicode="&#x201c;" glyph-name="quotedblleft" horiz-adv-x="800" d="M560 1062Q560 1163 607 1283Q664 1426 758 1544L776 1566Q794 1588 821 1609T868 1630Q908 1628 912 1588Q912 1536 892 1455Q862 1333 858 1308Q838 1169 838 1096Q838 1086 834 1079Q826
1067 788 1058L608 1020Q602 1019 597 1019Q560 1019 560 1062ZM160 1062Q160 1163 207 1283Q264 1426 358 1544L376 1566Q394 1588 421 1609T468 1630Q508 1628 512 1588Q512 1536 492 1455Q462 1333 458 1308Q438 1169 438 1096Q438 1086 434 1079Q426 1067 388
1058L208 1020Q203 1019 197 1019Q160 1019 160 1062Z" />
<glyph unicode="&#x201d;" glyph-name="quotedblright" horiz-adv-x="682" d="M908 1614Q908 1513 861 1393Q804 1250 710 1132L692 1110Q674 1088 647 1067T600 1046Q560 1048 556 1088Q556 1140 576 1221Q606 1343 610 1368T616 1427Q626 1554 630 1580Q631
1616 680 1618L860 1656Q906 1655 908 1614ZM508 1614Q508 1513 461 1393Q404 1250 310 1132L292 1110Q274 1088 247 1067T200 1046Q160 1048 156 1088Q156 1140 176 1221Q206 1343 210 1368T216 1427Q226 1554 230 1580Q231 1616 280 1618L460 1656Q506 1655 508
1614Z" />
<glyph unicode="&#x201e;" glyph-name="quotedblbase" horiz-adv-x="800" d="M582 214Q582 113 535 -7Q478 -150 384 -268L366 -290Q348 -312 321 -333T274 -354Q234 -352 230 -312Q230 -260 250 -179Q280 -57 284 -32T290 27Q300 154 304 180Q305 216 354 218L534
256Q580 255 582 214ZM282 214Q282 113 235 -7Q178 -150 84 -268L66 -290Q48 -312 21 -333T-26 -354Q-66 -352 -70 -312Q-70 -260 -50 -179Q-20 -57 -16 -32T-10 27Q0 154 4 180Q5 216 54 218L234 256Q280 255 282 214Z" />
<glyph unicode="&#x2022;" glyph-name="bullet" horiz-adv-x="1076" d="M336 536Q336 659 423 748Q512 838 640 838Q764 838 853 752Q944 663 944 536Q944 411 857 322Q768 232 640 232Q516 232 427 318Q336 407 336 536Z" />
<glyph unicode="&#x2039;" glyph-name="guilsinglleft" horiz-adv-x="572" d="M392 536L498 210Q510 176 482 165Q473 162 464 162H368Q325 162 305 197Q302 203 300 208L188 522Q173 566 202 605Q204 607 204 608L460 902Q495 939 542 940H638Q669 940 671 918Q672
904 660 888L392 536Z" />
<glyph unicode="&#x203a;" glyph-name="guilsinglright" horiz-adv-x="572" d="M326 566L220 892Q208 926 236 937Q245 940 254 940H350Q393 940 413 905Q416 899 418 894L530 580Q545 536 516 497Q514 495 514 494L258 200Q223 163 176 162H80Q49 162 47 184Q46
198 58 214L326 566Z" />
</font>
</defs>
</svg>
